<svg 
 xmlns="http://www.w3.org/2000/svg"
 xmlns:xlink="http://www.w3.org/1999/xlink"
 width="87px" height="41px">
<path fill-rule="evenodd"  fill="rgb(255, 255, 255)"
 d="M78.297,14.221 L86.135,14.221 L86.135,16.277 L80.537,16.277 L80.537,18.562 L85.905,18.562 L85.905,20.617 L80.537,20.617 L80.537,23.056 L86.135,23.056 L86.135,25.112 L78.297,25.112 L78.297,14.221 ZM73.757,20.617 L69.201,20.617 L69.201,25.112 L66.962,25.112 L66.962,14.221 L69.201,14.221 L69.201,18.562 L73.757,18.562 L73.757,14.221 L75.997,14.221 L75.997,25.112 L73.757,25.112 L73.757,20.617 ZM59.998,23.179 C60.734,23.179 61.358,22.993 61.869,22.619 C62.381,22.246 62.718,21.722 62.882,21.047 L65.275,21.047 C65.070,22.356 64.485,23.394 63.518,24.161 C62.552,24.928 61.379,25.311 59.998,25.311 C58.413,25.311 57.104,24.790 56.071,23.747 C55.038,22.704 54.522,21.338 54.522,19.651 C54.522,17.964 55.038,16.599 56.071,15.556 C57.104,14.513 58.413,13.991 59.998,13.991 C61.379,13.991 62.552,14.375 63.518,15.141 C64.485,15.908 65.070,16.946 65.275,18.255 L62.882,18.255 C62.718,17.580 62.381,17.056 61.869,16.683 C61.358,16.310 60.734,16.123 59.998,16.123 C59.016,16.123 58.252,16.440 57.705,17.074 C57.158,17.708 56.884,18.567 56.884,19.651 C56.884,20.735 57.158,21.594 57.705,22.228 C58.252,22.862 59.016,23.179 59.998,23.179 ZM51.175,23.240 L46.701,23.240 L46.036,25.112 L43.693,25.112 L47.618,14.221 L50.151,14.221 L54.067,25.112 L51.838,25.112 L51.175,23.240 ZM48.959,16.980 L48.923,16.982 L47.415,21.231 L50.464,21.231 L48.959,16.980 ZM40.687,20.986 L38.263,20.986 L38.263,25.112 L36.024,25.112 L36.024,14.221 L40.687,14.221 C41.934,14.221 42.865,14.533 43.478,15.157 C44.092,15.781 44.399,16.599 44.399,17.611 C44.399,18.613 44.084,19.426 43.455,20.050 C42.826,20.674 41.903,20.986 40.687,20.986 ZM41.791,16.637 C41.546,16.397 41.177,16.277 40.687,16.277 L38.263,16.277 L38.263,18.930 L40.687,18.930 C41.177,18.930 41.546,18.813 41.791,18.577 C42.036,18.342 42.159,18.020 42.159,17.611 C42.159,17.202 42.036,16.877 41.791,16.637 ZM31.833,23.240 L27.359,23.240 L26.694,25.112 L24.351,25.112 L28.276,14.221 L30.809,14.221 L34.724,25.112 L32.496,25.112 L31.833,23.240 ZM29.617,16.980 L29.581,16.982 L28.073,21.231 L31.122,21.231 L29.617,16.980 ZM19.612,5.301 C20.368,5.225 21.145,5.133 21.852,5.035 C21.802,5.280 21.739,5.537 21.660,5.807 C21.570,6.113 21.442,6.461 21.284,6.835 C21.035,7.423 20.713,8.073 20.350,8.729 C19.974,9.407 19.555,10.089 19.129,10.706 C18.990,10.907 18.850,11.102 18.712,11.288 C18.190,11.961 17.624,12.436 16.446,12.930 C16.506,12.922 16.566,12.914 16.626,12.906 C16.635,12.904 16.644,12.904 16.653,12.902 C17.250,12.811 17.992,12.603 18.427,12.364 C18.490,12.329 18.546,12.293 18.595,12.257 C18.577,12.356 18.545,12.492 18.493,12.662 C18.458,12.776 18.414,12.906 18.361,13.052 C18.343,13.100 18.323,13.151 18.303,13.202 C18.253,13.333 18.195,13.472 18.128,13.624 C17.995,13.927 17.829,14.271 17.621,14.657 C17.575,14.742 17.528,14.828 17.479,14.916 C17.440,14.977 17.402,15.036 17.363,15.094 C17.290,15.201 17.215,15.303 17.137,15.401 C17.077,15.476 17.015,15.549 16.952,15.619 C16.890,15.688 16.827,15.754 16.761,15.818 C16.658,15.918 16.552,16.014 16.439,16.104 C16.365,16.164 16.289,16.221 16.210,16.276 C15.844,16.532 15.425,16.746 14.929,16.934 C15.054,16.917 15.178,16.900 15.300,16.884 C15.201,16.901 15.099,16.916 14.996,16.928 C14.971,16.930 14.947,16.934 14.922,16.937 L14.922,16.937 L14.920,16.938 C14.945,16.936 14.970,16.933 14.996,16.930 C15.099,16.918 15.201,16.904 15.301,16.885 C16.033,16.748 16.649,16.437 17.029,16.198 C16.818,16.584 16.584,16.948 16.319,17.281 C15.731,18.019 14.989,18.605 14.004,18.948 C14.164,18.926 14.321,18.904 14.473,18.881 C14.395,18.896 14.316,18.908 14.235,18.920 C14.158,18.931 14.080,18.940 14.000,18.950 C14.000,18.950 14.000,18.950 14.000,18.950 C13.998,18.951 13.995,18.951 13.993,18.952 L13.990,18.953 C14.073,18.944 14.155,18.934 14.235,18.922 C14.316,18.911 14.396,18.897 14.473,18.883 C14.918,18.803 15.323,18.681 15.677,18.510 C15.386,19.324 15.086,20.073 14.776,20.764 C14.421,21.555 14.050,22.269 13.659,22.910 C13.362,23.396 13.053,23.841 12.729,24.248 C12.479,24.562 12.219,24.854 11.949,25.124 C10.608,26.465 8.555,27.525 7.025,27.669 L7.100,27.683 C8.795,28.032 10.420,27.677 11.846,26.314 C11.672,26.629 11.503,26.912 11.330,27.171 C10.599,28.262 9.784,28.910 8.174,29.565 C9.256,29.654 9.837,29.426 10.313,28.863 C10.234,29.025 10.148,29.176 10.053,29.319 C8.996,30.931 7.008,31.444 4.718,31.280 C5.223,31.761 5.482,32.371 5.505,33.013 C5.165,32.384 4.803,31.828 4.343,31.608 C4.643,30.810 4.774,30.459 4.924,30.069 C4.956,29.987 4.987,29.905 5.019,29.824 C5.022,29.815 5.025,29.807 5.028,29.798 C5.252,29.220 5.475,28.654 5.696,28.098 L5.695,28.098 C5.737,27.993 5.778,27.889 5.821,27.785 L5.821,27.785 C5.828,27.770 5.834,27.754 5.840,27.738 C6.125,27.024 6.408,26.328 6.688,25.651 C6.700,25.618 6.714,25.585 6.728,25.552 C7.010,24.870 7.289,24.207 7.565,23.561 C7.876,22.838 8.181,22.136 8.484,21.456 C8.802,20.740 9.115,20.048 9.424,19.379 C9.748,18.678 10.067,18.002 10.380,17.353 C10.635,16.824 10.885,16.312 11.132,15.817 C11.215,15.651 11.296,15.488 11.378,15.326 C11.540,15.004 11.699,14.690 11.858,14.383 C12.005,14.099 12.149,13.822 12.292,13.550 C12.340,13.459 12.387,13.369 12.435,13.280 L12.434,13.280 C12.443,13.265 12.450,13.252 12.457,13.238 L12.474,13.237 L12.458,13.238 C12.822,12.549 13.178,11.898 13.521,11.285 C13.914,10.582 14.293,9.928 14.656,9.319 C15.075,8.613 15.474,7.969 15.848,7.383 C15.871,7.347 15.894,7.310 15.917,7.276 C16.351,6.599 16.754,6.002 17.122,5.477 C17.767,5.463 18.594,5.402 19.458,5.318 C18.681,5.393 17.902,5.450 17.121,5.475 C17.926,4.342 18.752,3.214 19.728,2.215 C18.720,3.210 17.813,4.299 16.965,5.426 L16.965,5.427 C16.550,5.979 16.138,6.558 15.729,7.160 C15.705,7.196 15.680,7.233 15.656,7.269 C15.242,7.880 14.831,8.516 14.425,9.171 C14.033,9.802 13.645,10.451 13.262,11.114 C12.902,11.737 12.547,12.371 12.195,13.015 C12.195,13.015 12.195,13.015 12.195,13.014 L12.195,13.015 C12.183,13.037 12.170,13.058 12.159,13.081 C11.937,13.488 11.717,13.900 11.499,14.316 C11.373,14.556 11.247,14.797 11.122,15.039 C10.776,15.711 10.434,16.389 10.099,17.071 C9.760,17.760 9.426,18.454 9.100,19.148 C8.778,19.831 8.463,20.513 8.155,21.195 C7.846,21.876 7.544,22.554 7.250,23.228 C6.943,23.932 6.644,24.629 6.352,25.319 L6.352,25.319 C6.286,25.474 6.221,25.631 6.156,25.785 C5.923,26.342 5.696,26.893 5.474,27.435 C5.474,27.435 5.474,27.435 5.474,27.435 L5.471,27.443 C5.415,27.579 5.360,27.714 5.305,27.849 C5.064,28.443 4.830,29.025 4.605,29.596 C4.588,29.638 4.570,29.682 4.552,29.726 C4.491,29.882 4.429,30.038 4.368,30.192 C2.233,35.633 0.855,39.780 0.647,40.412 C0.529,40.705 0.326,40.919 -0.010,41.006 C1.155,37.516 2.315,34.231 3.465,31.257 C2.785,31.087 1.825,31.248 0.633,31.687 C1.455,31.113 2.268,30.618 3.040,30.591 C2.796,30.529 2.171,30.304 1.349,29.528 C2.147,29.839 2.839,30.005 3.350,29.917 C3.271,28.603 2.580,27.248 1.661,25.877 C1.658,25.870 2.967,26.663 3.445,27.452 C3.448,27.418 3.452,27.385 3.455,27.351 C3.548,26.382 3.711,25.410 3.931,24.436 L3.931,24.436 C3.939,24.400 3.946,24.362 3.954,24.327 L3.954,24.327 C4.138,23.529 4.359,22.728 4.613,21.926 C4.720,21.586 4.833,21.245 4.951,20.904 C5.094,20.505 5.250,20.090 5.421,19.660 C5.680,19.007 5.976,18.318 6.310,17.598 C6.605,16.963 6.930,16.302 7.290,15.619 C7.347,15.510 7.405,15.402 7.464,15.291 C7.755,14.749 8.054,14.212 8.360,13.680 C8.723,13.049 9.093,12.427 9.470,11.817 C9.843,11.213 10.223,10.622 10.603,10.045 C10.630,10.005 10.656,9.964 10.683,9.923 L10.688,9.933 C10.687,9.930 10.685,9.927 10.683,9.923 C10.697,9.903 10.710,9.884 10.724,9.863 C11.084,9.320 11.448,8.790 11.809,8.277 C12.233,7.673 12.656,7.090 13.074,6.533 C13.526,5.932 13.970,5.358 14.402,4.822 C14.785,4.346 15.159,3.897 15.518,3.480 C15.613,3.370 15.707,3.262 15.801,3.156 C15.801,3.155 15.800,3.155 15.800,3.155 C16.153,2.754 16.514,2.359 16.885,1.974 C17.526,1.329 18.167,0.661 18.959,0.191 L18.959,0.191 C19.287,0.006 19.688,-0.042 20.050,0.078 C20.749,0.324 21.260,0.919 21.608,1.541 C22.124,2.631 22.083,3.884 21.852,5.034 C21.107,5.135 20.360,5.226 19.612,5.301 ZM14.918,16.937 C14.918,16.937 14.919,16.937 14.919,16.937 L14.919,16.937 C14.919,16.937 14.918,16.937 14.918,16.937 ZM17.122,5.476 C17.122,5.476 17.122,5.476 17.122,5.477 C17.122,5.477 17.122,5.477 17.122,5.477 L17.122,5.476 ZM26.170,34.127 C26.535,34.422 27.015,34.569 27.611,34.569 C28.236,34.569 28.725,34.448 29.079,34.206 C29.433,33.964 29.610,33.619 29.610,33.170 C29.610,32.854 29.530,32.595 29.368,32.391 C29.207,32.188 28.995,32.040 28.732,31.949 C28.469,31.858 28.181,31.781 27.869,31.718 C27.557,31.655 27.243,31.585 26.928,31.507 C26.612,31.430 26.323,31.328 26.060,31.202 C25.797,31.076 25.584,30.878 25.423,30.608 C25.262,30.338 25.181,29.999 25.181,29.593 C25.181,29.018 25.409,28.523 25.865,28.109 C26.321,27.695 26.945,27.488 27.738,27.488 C28.544,27.488 29.172,27.713 29.621,28.162 C30.070,28.611 30.301,29.193 30.315,29.908 L29.568,29.908 C29.554,29.389 29.384,28.972 29.058,28.656 C28.732,28.341 28.295,28.183 27.748,28.183 C27.187,28.183 26.747,28.307 26.428,28.556 C26.109,28.805 25.949,29.140 25.949,29.561 C25.949,29.856 26.032,30.096 26.196,30.282 C26.361,30.468 26.573,30.606 26.833,30.697 C27.092,30.788 27.380,30.864 27.696,30.923 C28.011,30.983 28.327,31.057 28.642,31.144 C28.958,31.232 29.246,31.343 29.505,31.476 C29.765,31.609 29.977,31.814 30.142,32.091 C30.306,32.368 30.389,32.710 30.389,33.117 C30.389,33.762 30.131,34.281 29.616,34.674 C29.100,35.067 28.425,35.263 27.590,35.263 C26.686,35.263 26.002,35.037 25.539,34.585 C25.076,34.132 24.830,33.555 24.802,32.854 L25.560,32.854 C25.602,33.408 25.805,33.832 26.170,34.127 ZM41.330,28.372 L37.080,28.372 L37.080,30.960 L41.109,30.960 L41.109,31.686 L37.080,31.686 L37.080,34.390 L41.330,34.390 L41.330,35.116 L36.312,35.116 L36.312,27.646 L41.330,27.646 L41.330,28.372 ZM52.087,28.230 C52.484,28.619 52.682,29.126 52.682,29.750 C52.682,30.276 52.540,30.722 52.256,31.087 C51.972,31.451 51.542,31.686 50.967,31.791 L52.850,35.116 L51.924,35.116 L50.167,31.865 L47.979,31.865 L47.979,35.116 L47.211,35.116 L47.211,27.646 L50.283,27.646 C51.090,27.646 51.691,27.841 52.087,28.230 ZM47.979,31.129 L50.315,31.129 C50.834,31.129 51.225,31.008 51.488,30.766 C51.751,30.524 51.882,30.185 51.882,29.750 C51.882,29.330 51.751,28.997 51.488,28.751 C51.225,28.506 50.834,28.383 50.315,28.383 L47.979,28.383 L47.979,31.129 ZM60.839,34.136 L60.866,34.141 L63.402,27.646 L64.244,27.646 L61.235,35.116 L60.414,35.116 L57.416,27.646 L58.279,27.646 L60.839,34.136 ZM74.638,28.372 L70.388,28.372 L70.388,30.960 L74.417,30.960 L74.417,31.686 L70.388,31.686 L70.388,34.390 L74.638,34.390 L74.638,35.116 L69.620,35.116 L69.620,27.646 L74.638,27.646 L74.638,28.372 ZM85.396,28.230 C85.792,28.619 85.990,29.126 85.990,29.750 C85.990,30.276 85.848,30.722 85.564,31.087 C85.280,31.451 84.850,31.686 84.275,31.791 L86.158,35.116 L85.233,35.116 L83.476,31.865 L81.287,31.865 L81.287,35.116 L80.519,35.116 L80.519,27.646 L83.591,27.646 C84.398,27.646 84.999,27.841 85.396,28.230 ZM81.287,31.129 L83.623,31.129 C84.142,31.129 84.533,31.008 84.796,30.766 C85.059,30.524 85.190,30.185 85.190,29.750 C85.190,29.330 85.059,28.997 84.796,28.751 C84.533,28.506 84.142,28.383 83.623,28.383 L81.287,28.383 L81.287,31.129 Z"/>
</svg>