<svg id="Layer_2" data-name="Layer 2" xmlns="http://www.w3.org/2000/svg" viewBox="0 0 940.01 411.4"><defs><style>.cls-1,.cls-2,.cls-3,.cls-4{fill:#fff;}.cls-2{opacity:0.8;}.cls-2,.cls-3{isolation:isolate;}.cls-3{opacity:0.15;}.cls-4{font-size:246.47px;font-family:Eina04-Bold, Eina04-Bold;}.cls-5{letter-spacing:-0.02em;}.cls-6{letter-spacing:0em;}</style></defs><title>css</title><g id="Layer_2-2" data-name="Layer 2"><path class="cls-1" d="M46.6,51.9l33,370.3,148.1,41.1,148.6-41.2,33-370.2ZM348,398.5,228,431.8V384.7l-.2.1-93-25.8-6.4-71.3H174l3.2,36.2,50.6,13.7.2-.1V265H126.4l-4.1-45.4H228V173H118.3l-4.1-45.4H228.1V82.2H376.4Z" transform="translate(-46.6 -51.9)"/><polygon class="cls-2" points="237.2 213 181.4 213 181.4 285.5 197.9 281.1 231.9 271.9 237.2 213"/><polygon class="cls-2" points="245.2 121.1 181.4 121.1 181.4 167.6 241.1 167.6 245.2 121.1"/><polygon class="cls-2" points="181.4 30.4 181.4 75.7 295 75.7 286.8 167.6 285.7 179.8 275 299.4 274.3 307 181.4 332.8 181.4 379.9 301.4 346.4 329.7 30.4 181.4 30.4"/></g><polygon id="polygon2993" class="cls-3" points="75.7 167.6 79.8 213 181.4 213 181.4 167.6 75.7 167.6"/><polygon id="polygon2995" class="cls-3" points="181.4 75.7 181.2 75.7 67.5 75.7 71.7 121.1 181.4 121.1 181.4 75.7"/><polygon id="polygon2997" class="cls-3" points="181.4 332.8 181.4 285.5 181.2 285.6 130.6 271.9 127.4 235.7 102.8 235.7 81.8 235.7 88.2 307 181.2 332.9 181.4 332.8"/><text class="cls-4" transform="translate(441.4 293.35)">C<tspan class="cls-5" x="191.75" y="0">S</tspan><tspan class="cls-6" x="342.1" y="0">S</tspan></text></svg>