<svg xmlns="http://www.w3.org/2000/svg" width="70.125" height="28.563" viewBox="0 0 70.125 28.563">
  <metadata><?xpacket begin="﻿" id="W5M0MpCehiHzreSzNTczkc9d"?>
<x:xmpmeta xmlns:x="adobe:ns:meta/" x:xmptk="Adobe XMP Core 5.6-c140 79.160451, 2017/05/06-01:08:21        ">
   <rdf:RDF xmlns:rdf="http://www.w3.org/1999/02/22-rdf-syntax-ns#">
      <rdf:Description rdf:about=""/>
   </rdf:RDF>
</x:xmpmeta>
                                                                                                    
                                                                                                    
                                                                                                    
                                                                                                    
                                                                                                    
                                                                                                    
                                                                                                    
                                                                                                    
                                                                                                    
                                                                                                    
                                                                                                    
                                                                                                    
                                                                                                    
                                                                                                    
                                                                                                    
                                                                                                    
                                                                                                    
                                                                                                    
                                                                                                    
                                                                                                    
                           
<?xpacket end="w"?></metadata>
<defs>
    <style>
      .cls-1 {
        fill: #fff;
        fill-rule: evenodd;
      }
    </style>
  </defs>
  <path id="git" class="cls-1" d="M494.827,980.459a4.247,4.247,0,0,1,1.034,2.749c0,3.02-2.432,4.789-5.953,4.789a9.111,9.111,0,0,1-2.209-.245l-0.923,1.443,2.739,0.162c4.837,0.3,7.687.437,7.687,4.055,0,3.13-2.822,4.9-7.687,4.9-5.059,0-6.988-1.252-6.988-3.4a3.5,3.5,0,0,1,1.537-2.776,1.813,1.813,0,0,1-1.23-1.8,2.415,2.415,0,0,1,.811-1.661c0.5-.516,1.062-1.034,1.733-1.633a4.331,4.331,0,0,1-2.4-4.082c0-3.129,2.125-5.278,6.4-5.278a9.813,9.813,0,0,1,2.573.272H497.4v2.312Zm-8.274,12.41a2.389,2.389,0,0,0-.727,1.442c0,1.088,1.425,1.415,3.382,1.415,1.622,0,3.83-.11,3.83-1.578,0-.872-1.062-0.926-2.405-1.008Zm3.074-12.492c-1.538,0-2.683.735-2.683,2.5,0,1.333.755,2.258,2.6,2.258a2.338,2.338,0,0,0,2.628-2.313A2.262,2.262,0,0,0,489.627,980.377Zm9.083,11.491v-2.149l1.427-.19c0.391-.055.447-0.136,0.447-0.545v-8a0.5,0.5,0,0,0-.364-0.571l-1.51-.518,0.308-2.2h5.787v11.293c0,0.436.027,0.49,0.448,0.545l1.425,0.19v2.149H498.71Zm3.607-16.354a2.266,2.266,0,0,1-2.516-2.451,2.534,2.534,0,0,1,5.06,0A2.275,2.275,0,0,1,502.317,975.514Zm15.416,15.3a11.422,11.422,0,0,1-4.557,1.088c-3.327,0-4.585-1.3-4.585-4.382V980.39c0-.163,0-0.272-0.224-0.272H506.41V977.7c2.461-.273,3.439-1.471,3.746-4.437h2.657v3.866c0,0.189,0,.272.224,0.272h3.941v2.721h-4.165v6.5c0,1.606.391,2.231,1.9,2.231a6.791,6.791,0,0,0,2.265-.435Zm-41.42-7.142-12.782-12.442a1.921,1.921,0,0,0-2.666,0l-2.654,2.584,3.366,3.278a2.282,2.282,0,0,1,2.3.522,2.14,2.14,0,0,1,.532,2.256l3.245,3.159a2.283,2.283,0,0,1,2.317.518,2.141,2.141,0,0,1,0,3.088,2.285,2.285,0,0,1-3.173,0,2.142,2.142,0,0,1-.488-2.375l-3.026-2.946v7.753a2.262,2.262,0,0,1,.593.413,2.144,2.144,0,0,1,0,3.089,2.286,2.286,0,0,1-3.172,0,2.142,2.142,0,0,1,0-3.089,2.242,2.242,0,0,1,.734-0.477v-7.824a2.227,2.227,0,0,1-.734-0.477,2.141,2.141,0,0,1-.484-2.387l-3.319-3.232-8.764,8.532a1.8,1.8,0,0,0,0,2.6l12.782,12.442a1.922,1.922,0,0,0,2.667,0l12.722-12.384A1.8,1.8,0,0,0,476.313,983.671Z" transform="translate(-447.594 -970.656)"/>
</svg>
