<svg id="Layer_1" data-name="Layer 1" xmlns="http://www.w3.org/2000/svg" viewBox="0 0 1098.49 411.4"><defs><style>.cls-1,.cls-2,.cls-4{fill:#fff;}.cls-2{opacity:0.15;isolation:isolate;}.cls-3{opacity:0.8;}.cls-4{font-size:246.47px;font-family:Eina04-Bold, Eina04-Bold;}</style></defs><title>html</title><polygon class="cls-1" points="181.2 121.1 117.2 121.1 121.4 167.6 181.2 167.6 181.4 167.6 181.4 121.1 181.2 121.1"/><path class="cls-1" d="M46.6,51.9h0l33,370.4,148.1,41,148.7-41.2,33-370.2ZM348,398.3,228,431.8V384.9l-93.2-26-6.4-71.3H174l3.2,36.3,50.7,13.6,50.6-13.6L228,337.4V264.9h-.2v-.1H126.4L114,127.6H228V82.3H376.3Z" transform="translate(-46.6 -51.9)"/><path class="cls-2" d="M114,127.6H228V173H163.8l4.2,46.5h60v45.3H126.4m2,22.8H174l3.2,36.3L228,337.5v47.4l-93.2-26" transform="translate(-46.6 -51.9)"/><g class="cls-3"><polygon class="cls-1" points="237.2 213 181.4 213 181.4 285.5 231.9 272 237.2 213"/><polygon class="cls-1" points="181.4 30.4 181.4 75.7 295 75.7 290.8 121.1 181.4 121.1 181.4 167.6 286.7 167.6 274.2 307 181.4 332.7 181.4 379.9 301.4 346.4 329.7 30.4 181.4 30.4"/></g><text class="cls-4" transform="translate(441.4 293.35)">HTML</text></svg>