<svg xmlns="http://www.w3.org/2000/svg" viewBox="0 0 803.77 299.81"><defs><style>.cls-1{font-size:246.47px;font-family:Eina04-Bold, Eina04-Bold;}.cls-1,.cls-3{fill:#fff;}.cls-2{letter-spacing:-0.02em;}</style></defs><title>java_3</title><g id="Layer_2" data-name="Layer 2"><g id="Layer_2-2" data-name="Layer 2"><text class="cls-1" transform="translate(251.68 234.25)">J<tspan class="cls-2" x="142.95" y="0">av</tspan><tspan x="410.13" y="0">a</tspan></text><path class="cls-3" d="M62.89,202.93c-40.71,11.27,24.76,34.56,76.59,12.55a95.53,95.53,0,0,1-14.57-7c-23.12,4.34-33.84,4.68-54.82,2.3C52.77,208.76,62.89,202.93,62.89,202.93Zm70.38-22c-30.62,5.84-48.32,5.65-70.73,3.36-17.33-1.77-6-10.1-6-10.1-44.84,14.75,25,31.48,87.62,13.32A31.54,31.54,0,0,1,133.27,180.94Zm24-127.35S66.66,76,110,125.47c12.77,14.57-3.36,27.68-3.36,27.68s32.43-16.59,17.54-37.36C110.22,96.41,99.55,86.79,157.29,53.59Zm21.2,170.59s7.49,6.11-8.24,10.84c-29.92,9-124.52,11.7-150.8.36-9.44-4.07,8.27-9.73,13.84-10.91a36.4,36.4,0,0,1,9.14-1c-10.51-7.33-67.91,14.41-29.16,20.63C119,261.06,205.9,236.43,178.49,224.18Zm-36.32-63.77a84.63,84.63,0,0,1,12.1-6.42s-20,3.54-39.91,5.21c-24.37,2-50.52,2.42-63.65.67-31.08-4.11,17-15.44,17-15.44s-18.68-1.25-41.67,9.77C-1.09,167.22,93.3,173.15,142.17,160.41Zm11.9,31.84a4.32,4.32,0,0,1-1,1.29c66.34-17.28,41.95-60.92,10.23-49.87a9,9,0,0,0-4.24,3.24,37.56,37.56,0,0,1,5.68-1.51C180.78,142.09,203.75,166.67,154.07,192.25ZM98,144c-9.79-21.91-43-41.09,0-74.74C151.64,27.27,124.13,0,124.13,0,135.22,43.32,85,56.41,66.87,83.39,54.51,101.77,72.93,121.52,98,144Zm57.84,108.8c-40.7,7.59-90.89,6.7-120.66,1.83,0,0,6.1,5,37.43,7,47.68,3,120.9-1.68,122.64-24C195.27,237.54,191.93,246,155.86,252.75Z"/></g></g></svg>