<svg xmlns="http://www.w3.org/2000/svg" width="81.03" height="18.718" viewBox="0 0 81.03 18.718">
  <metadata><?xpacket begin="﻿" id="W5M0MpCehiHzreSzNTczkc9d"?>
<x:xmpmeta xmlns:x="adobe:ns:meta/" x:xmptk="Adobe XMP Core 5.6-c140 79.160451, 2017/05/06-01:08:21        ">
   <rdf:RDF xmlns:rdf="http://www.w3.org/1999/02/22-rdf-syntax-ns#">
      <rdf:Description rdf:about=""/>
   </rdf:RDF>
</x:xmpmeta>
                                                                                                    
                                                                                                    
                                                                                                    
                                                                                                    
                                                                                                    
                                                                                                    
                                                                                                    
                                                                                                    
                                                                                                    
                                                                                                    
                                                                                                    
                                                                                                    
                                                                                                    
                                                                                                    
                                                                                                    
                                                                                                    
                                                                                                    
                                                                                                    
                                                                                                    
                                                                                                    
                           
<?xpacket end="w"?></metadata>
<defs>
    <style>
      .cls-1 {
        fill: #fff;
        fill-rule: evenodd;
      }
    </style>
  </defs>
  <path id="Jquery" class="cls-1" d="M952.176,983.245h0l-0.535,1.881,0.535-1.881h0Zm2.753,4.085-0.59,0Zm-0.152,2.809h0l-3.534.013,3.534-.013h0Zm0.741-2.806-0.59,0Zm-0.431,2.567,0.616-2.328-0.616,2.329h0ZM968.1,979.178l-1.147,5.347Zm-2.948,0-0.871,3.994,0.871-3.994h0Zm2.751-.24h-2.452a0.321,0.321,0,0,0-.3.24l-0.871,3.994-0.87,3.994a0.321,0.321,0,0,1-.3.24h-1.736c-1.717,0-1.519-1.177-1.167-2.791,0-.017.007-0.032,0.01-0.049l0.039-.2c0-.014,0-0.027.007-0.039l0.079-.414,0.084-.444c0.025-.133.064-0.329,0.089-0.452l0.4-1.918,0.4-1.917a0.194,0.194,0,0,0-.2-0.241h-2.517a0.32,0.32,0,0,0-.3.24l-0.541,2.547-0.541,2.546a0,0,0,0,0,0,0l-0.05.236c-0.624,2.823-.458,5.514,2.93,5.6l0.1,0h5.318a0.32,0.32,0,0,0,.3-0.24l1.147-5.346,1.147-5.346a0.193,0.193,0,0,0-.2-0.241h0Zm9.784,8.5a0.194,0.194,0,0,1,.2.241l-0.238,1.154m-0.238,1.154,0.238-1.154-0.238,1.155h0Zm-0.3.243h0c-0.721.006-2.89,0.022-4.52,0.022,1.984,0,4.519-.022,4.519-0.022h0Zm-5.982-4.278a0.386,0.386,0,0,1,.279-0.345l-0.306,0c-0.138,1.377.027,0.35,0.027,0.35h0Zm1.686,4.3h0Zm4.873-2.814a0.194,0.194,0,0,1,.2.241l-0.238,1.154-0.039.188m-3.633,1.228h0Zm-0.6,0h0Zm-0.183,0h0Zm-0.187,0h0Zm0.335,0h0Zm0.628,0-0.592,0Zm3.146-.019h0c-0.529,0-1.835.014-3.138,0.019C975.276,990.24,976.583,990.23,977.112,990.226Zm0.3-.242,0.2-.967-0.2.968h0Zm-4.277.264h0Zm-0.366,0h0Zm0.186,0h0Zm-33.319-5.38,0.381-1.675-0.436,1.915-0.418,1.949,0.367-1.709c0.028-.132.076-0.348,0.106-0.48h0Zm2-5.958h-2.693a0.327,0.327,0,0,0-.3.239l-0.255,1.118-0.255,1.118a0.188,0.188,0,0,0,.193.239h2.714a0.322,0.322,0,0,0,.3-0.239l0.247-1.118,0.247-1.117h0a0.19,0.19,0,0,0-.2-0.239h0Zm-0.586,3.718h0l-0.79,3.623Zm-5.269,10.9s1.358,0.018,2.221.018c-0.655,0-1.738-.012-2.222-0.018h0Zm2.057-10.9-0.381,1.675Zm3.017-.239h-2.714a0.325,0.325,0,0,0-.3.24l-0.382,1.674-0.381,1.675c-0.03.131-.078,0.348-0.106,0.48l-0.366,1.709-0.366,1.709c-0.029.132-.087,0.345-0.131,0.473,0,0-.507,1.5-1.36,1.479l-0.106,0-0.738-.013h0a0.323,0.323,0,0,0-.3.234l-0.281,1.174-0.281,1.173a0.188,0.188,0,0,0,.189.241c0.483,0.006,1.566.018,2.222,0.018,2.129,0,3.252-1.17,3.971-4.537l0.842-3.864,0.79-3.623a0.19,0.19,0,0,0-.2-0.24h0Zm38.56,7.723a0.19,0.19,0,0,1-.2-0.24l2.042-9.485m0.991,9.484,0.826-4.048Zm-3,.121a1.047,1.047,0,0,1,.022-0.36l0.969-4.5-1.021,4.742a0.192,0.192,0,0,0,.2.24h0.248a0.643,0.643,0,0,1-.414-0.12h0Zm2.843,0.066a1.286,1.286,0,0,1-.383.054h0.248a0.316,0.316,0,0,0,.3-0.241l0.049-.24a0.872,0.872,0,0,1-.211.427h0Zm0.575-2.211,0.364-1.787v0l-0.364,1.783h0Zm8.057-6.825,0.112,0.461a0.188,0.188,0,0,1-.191.24M982.3,989.63l0.363-1.784Zm8.309-9.081,0.111,0.472Zm-7.581,5.511c0.027-.133.072-0.347,0.1-0.478l0.39-1.808-0.441,2.048-0.049.238h0Zm-1.736-5.829c-0.027.127-.062,0.289-0.085,0.395l-0.969,4.5,1.021-4.743,0.033-.155h0Zm9.541,1.251-0.113-.461-0.111-.472-0.056-.239c-0.221-.849-0.868-1.339-2.274-1.339l-2.187,0-2.015,0h-2.268a0.32,0.32,0,0,0-.3.24h0l-0.1.47-0.118.555-0.033.155-1.021,4.743-0.969,4.5a1.029,1.029,0,0,0-.022.361,0.639,0.639,0,0,0,.414.12h2.045a1.291,1.291,0,0,0,.383-0.054,0.872,0.872,0,0,0,.211-0.427l0.363-1.784,0.364-1.783a0,0,0,0,0,0,0l0.049-.238,0.441-2.049,0.389-1.809a0.32,0.32,0,0,1,.3-0.239l6.436,0a0.188,0.188,0,0,0,.191-0.24h0Zm8.285-4.167-0.5,0h-2.06a0.527,0.527,0,0,0-.388.2l-4.555,6.617c-0.077.112-.165,0.1-0.2-0.036l-0.335-1.458a0.325,0.325,0,0,0-.3-0.239h-2.928a0.176,0.176,0,0,0-.18.236L989,987.2a1.068,1.068,0,0,1,.007.474l-0.572,2.206a0.182,0.182,0,0,0,.186.238h2.894a0.337,0.337,0,0,0,.309-0.238l0.572-2.206a1.468,1.468,0,0,1,.211-0.434l7.395-9.733c0.083-.108.033-0.2-0.1-0.2l-0.776.005h0Zm-23.265,5.709v0a0.3,0.3,0,0,1-.289.254h-3.713a0.159,0.159,0,0,1-.175-0.193,0.059,0.059,0,0,1,0-.008h0a0.03,0.03,0,0,1,0-.013L971.7,983a2.326,2.326,0,0,1,2.434-1.549c1.528,0,1.826.741,1.723,1.573h0Zm-1.09-4.249c-4.765,0-5.9,2.868-6.528,5.763-0.634,2.951-.579,5.71,4.352,5.71h0.782l0.592,0h0.009c1.3,0,2.609-.015,3.138-0.019a0.321,0.321,0,0,0,.3-0.241l0.2-.968,0.039-.188,0.238-1.154a0.193,0.193,0,0,0-.2-0.241h-4.433c-1.764,0-2.287-.465-2.094-1.831h7.091a0.289,0.289,0,0,0,.258-0.181,0.222,0.222,0,0,0,.017-0.061h0c1.052-3.935.75-6.586-3.758-6.586h0Zm-22.524,4.234-0.067.236h0l-0.535,1.881-0.535,1.88a0.347,0.347,0,0,1-.315.236h-2.833c-2.148,0-2.671-1.666-2.148-4.124,0.523-2.514,1.548-4.076,3.663-4.234,2.89-.217,3.468,1.8,2.77,4.125h0Zm1.942,4.089a31.291,31.291,0,0,0,1.639-5.073c0.414-2.486-.841-6.091-5.69-6.091-4.821,0-6.914,3.442-7.713,7.184-0.8,3.769.248,7.075,5.041,7.048l3.782-.014,3.534-.013a0.341,0.341,0,0,0,.31-0.238l0.616-2.329a0.182,0.182,0,0,0-.185-0.239l-0.59,0-0.59,0a0.151,0.151,0,0,1-.168-0.174,0.2,0.2,0,0,1,.014-0.055h0Zm23.866-2.152a0.163,0.163,0,1,1-.163-0.161A0.162,0.162,0,0,1,978.051,984.946Zm-58.122-5.289a6.216,6.216,0,0,0-.149,6.381c0.024,0.048.05,0.1,0.075,0.143,0.015,0.03.03,0.061,0.047,0.091s0.02,0.035.03,0.052c0.017,0.032.035,0.063,0.053,0.094,0.031,0.056.064,0.11,0.1,0.165,0.018,0.03.036,0.061,0.055,0.091,0.037,0.059.074,0.117,0.113,0.175,0.016,0.024.031,0.049,0.048,0.073,0.053,0.078.107,0.157,0.163,0.234l0,0.006c0.008,0.012.018,0.024,0.027,0.036,0.048,0.067.1,0.132,0.149,0.2,0.018,0.024.037,0.048,0.056,0.071l0.137,0.168c0.018,0.02.035,0.041,0.053,0.062,0.062,0.073.126,0.146,0.191,0.217a0.015,0.015,0,0,1,0,0l0.007,0.008c0.064,0.069.129,0.136,0.195,0.2,0.02,0.021.041,0.042,0.062,0.062,0.051,0.051.1,0.1,0.156,0.152l0.063,0.059c0.07,0.066.141,0.13,0.213,0.193a0.005,0.005,0,0,0,0,0l0.037,0.032c0.063,0.054.128,0.108,0.193,0.162l0.08,0.063,0.161,0.125,0.086,0.065c0.06,0.044.121,0.086,0.181,0.129,0.023,0.015.044,0.031,0.066,0.046l0.018,0.013c0.058,0.039.117,0.077,0.176,0.115l0.076,0.05c0.091,0.057.182,0.113,0.275,0.167l0.076,0.043c0.068,0.039.137,0.077,0.207,0.115,0.037,0.02.076,0.039,0.114,0.058l0.148,0.076,0.034,0.016,0.06,0.029,0.234,0.108,0.05,0.022c0.09,0.039.181,0.076,0.273,0.112l0.066,0.026c0.085,0.033.172,0.065,0.258,0.095l0.033,0.011c0.094,0.033.19,0.064,0.287,0.093l0.069,0.021a2.85,2.85,0,0,0,.3.083c6.438,1.164,8.308-3.836,8.308-3.836-1.571,2.029-4.359,2.564-7,1.968-0.1-.022-0.2-0.053-0.295-0.082l-0.073-.022c-0.1-.029-0.19-0.059-0.284-0.091l-0.039-.014-0.25-.092-0.071-.028c-0.09-.035-0.181-0.073-0.27-0.111l-0.054-.024-0.228-.105L925.016,988l-0.176-.089-0.118-.061c-0.071-.038-0.141-0.078-0.211-0.118l-0.071-.039c-0.093-.054-0.185-0.111-0.275-0.167l-0.075-.049-0.2-.13-0.063-.044c-0.062-.043-0.124-0.087-0.185-0.132l-0.082-.062c-0.056-.042-0.112-0.085-0.167-0.129l-0.074-.059c-0.07-.058-0.14-0.115-0.208-0.174l-0.023-.019q-0.111-.1-0.219-0.2l-0.061-.058c-0.054-.051-0.106-0.1-0.158-0.153-0.02-.021-0.041-0.041-0.061-0.061-0.066-.067-0.13-0.134-0.193-0.2a0.047,0.047,0,0,0-.01-0.01c-0.066-.073-0.131-0.146-0.195-0.221l-0.051-.06c-0.048-.057-0.1-0.115-0.141-0.173-0.017-.021-0.035-0.042-0.052-0.064-0.055-.071-0.109-0.142-0.162-0.214a6.68,6.68,0,0,1-.821-6.966m3.093-.292a4.556,4.556,0,0,0-.16,4.666,6.157,6.157,0,0,0,.426.7,3.336,3.336,0,0,0,.5.614c0.069,0.076.141,0.15,0.215,0.222l0.057,0.056c0.072,0.069.145,0.137,0.221,0.2l0.009,0.008,0,0c0.084,0.073.17,0.143,0.258,0.212l0.058,0.045q0.132,0.1.27,0.2l0.008,0.006c0.04,0.028.082,0.054,0.123,0.08,0.02,0.013.038,0.027,0.058,0.038,0.066,0.042.132,0.083,0.2,0.122l0.028,0.016,0.177,0.1c0.021,0.012.042,0.022,0.063,0.032l0.123,0.064,0.019,0.008c0.085,0.042.17,0.082,0.258,0.119,0.018,0.009.038,0.016,0.057,0.024,0.069,0.029.14,0.058,0.211,0.085l0.09,0.033c0.065,0.023.129,0.045,0.194,0.066l0.088,0.028a2.1,2.1,0,0,0,.281.081c4.97,0.816,6.117-2.978,6.117-2.978a4.742,4.742,0,0,1-5.175,1.631c-0.095-.024-0.188-0.051-0.281-0.08l-0.085-.027c-0.066-.022-0.132-0.044-0.2-0.068l-0.089-.033c-0.071-.027-0.142-0.055-0.212-0.084l-0.057-.024c-0.087-.038-0.174-0.078-0.259-0.12l-0.13-.065L927.448,984c-0.055-.029-0.11-0.06-0.165-0.092l-0.039-.022c-0.067-.039-0.133-0.079-0.2-0.12l-0.06-.04c-0.043-.028-0.087-0.056-0.129-0.085-0.092-.062-0.181-0.128-0.269-0.2l-0.06-.047a5.932,5.932,0,0,1-2.03-2.869,4.417,4.417,0,0,1,.35-3.571m2.689-.093a2.852,2.852,0,0,0-.23,2.771,3.926,3.926,0,0,0,2.26,2.094q0.061,0.023.123,0.042l0.055,0.017a1.329,1.329,0,0,0,.177.051,3.071,3.071,0,0,0,3.687-1.679,2.706,2.706,0,0,1-3.093.831c-0.106-.026-0.223-0.064-0.325-0.1a3.817,3.817,0,0,1-.386-0.159,4.023,4.023,0,0,1-.678-0.41,3.258,3.258,0,0,1-1.165-4.039" transform="translate(-919 -975.938)"/>
</svg>
