<svg id="Layer_2" data-name="Layer 2" xmlns="http://www.w3.org/2000/svg" viewBox="0 0 1668.45 411.4"><defs><style>.cls-1,.cls-2,.cls-4{fill:#fff;}.cls-1{opacity:0.15;isolation:isolate;}.cls-2{font-size:246.47px;font-family:Eina04-Bold, Eina04-Bold;}.cls-3{letter-spacing:-0.02em;}</style></defs><title>js</title><polygon id="polygon2993" class="cls-1" points="75.7 167.6 79.8 213 181.4 213 181.4 167.6 75.7 167.6"/><polygon id="polygon2997" class="cls-1" points="181.4 332.8 181.4 285.5 181.2 285.6 130.6 271.9 127.4 235.7 102.8 235.7 81.8 235.7 88.2 307 181.2 332.9 181.4 332.8"/><text class="cls-2" transform="translate(450.4 293.35)">J<tspan class="cls-3" x="142.95" y="0">av</tspan><tspan x="410.13" y="0">ascript</tspan></text><path class="cls-4" d="M46.6,51.9V463.3H458V51.9ZM221.8,305.83c0,47.82-28.28,69.58-69.56,69.58-37.3,0-58.9-19.13-69.88-42.18l37.92-22.76c7.32,12.87,14,23.75,30,23.75,15.31,0,25-5.93,25-29v-157H221.8ZM331.88,375.5c-43.27,0-71.22-20.44-84.89-47.23l37.85-21.8c10,16.16,23,28,46,28,19.3,0,31.63-9.56,31.63-22.77,0-15.84-12.67-21.45-33.91-30.66l-11.65-4.95c-33.62-14.2-55.95-32-55.95-69.58,0-34.63,26.62-61,68.23-61,29.62,0,50.91,10.22,66.25,37l-36.27,23.09c-8-14.19-16.61-19.79-30-19.79-13.65,0-22.3,8.59-22.3,19.79,0,13.86,8.66,19.47,28.65,28l11.64,4.94c39.58,16.83,61.93,34,61.93,72.54C409.07,352.72,376.12,375.5,331.88,375.5Z" transform="translate(-46.6 -51.9)"/></svg>