
<svg width="384px" height="140px" viewBox="0 0 384 140" version="1.1" xmlns="http://www.w3.org/2000/svg" xmlns:xlink="http://www.w3.org/1999/xlink">
    <!-- Generator: Sketch 47.1 (45422) - http://www.bohemiancoding.com/sketch -->
    <desc>Created with Sketch.</desc>
    <defs>
        <linearGradient x1="14.8433639%" y1="15.6292529%" x2="90.1144214%" y2="86.2187522%" id="linearGradient-1">
            <stop stop-color="#FFFFFF" offset="0%"></stop>
            <stop stop-color="#FFFFFF" stop-opacity="0" offset="100%"></stop>
        </linearGradient>
        <linearGradient x1="84.9046794%" y1="82.9478859%" x2="-0.47660312%" y2="12.3985221%" id="linearGradient-2">
            <stop stop-color="#FFFFFF" stop-opacity="0" offset="0%"></stop>
            <stop stop-color="#FFFFFF" offset="100%"></stop>
        </linearGradient>
    </defs>
    <g id="Page-1" stroke="none" stroke-width="1" fill="none" fill-rule="evenodd">
        <g id="json">
            <g id="Layer_2-2" fill-rule="nonzero">
                <g id="Layer_1-2-2">
                    <path d="M69.8,104 C100.7,146.1 131,92.2 130.9,59.8 C130.9,21.49 92,0.09 69.7,0.09 C34,0.09 0,29.59 0,70 C0,114.9 39,139.7 69.7,139.7 C62.7,138.7 39.6,133.7 39.3,80.4 C39.1,44.3 51.1,29.9 69.7,36.2 C70.1,36.4 90.2,44.3 90.2,70.2 C90.2,96.1 69.8,104 69.8,104 Z" id="path7508" fill="url(#linearGradient-1)"></path>
                    <path d="M69.7,36.19 C49.3,29.19 24.3,45.99 24.3,79.69 C24.3,134.69 65.1,139.69 70,139.69 C105.7,139.69 139.7,110.19 139.7,69.79 C139.7,24.89 100.7,0.09 70,0.09 C78.5,-1.11 115.9,9.29 115.9,60.39 C115.9,93.69 88,111.79 69.9,104.09 C69.5,103.89 49.4,95.99 49.4,70.09 C49.4,44.19 69.7,36.19 69.7,36.19 Z" id="path7510" fill="url(#linearGradient-2)"></path>
                </g>
            </g>
            <text id="JSON" fill="#FFFFFF" font-family="Eina04-Bold" font-size="85.07" font-weight="bold">
                <tspan x="153" y="100.65">JSON</tspan>
            </text>
        </g>
    </g>
</svg>