<svg xmlns="http://www.w3.org/2000/svg" viewBox="0 0 984.9 336.34"><defs><style>.cls-1,.cls-2,.cls-3{fill:#fff;}.cls-1{opacity:0.15;isolation:isolate;}.cls-2{font-size:246.47px;font-family:Eina04-Bold, Eina04-Bold;}</style></defs><title>linux</title><g id="Layer_2" data-name="Layer 2"><g id="Layer_2-2" data-name="Layer 2"><polygon id="polygon2993" class="cls-1" points="16.86 145.03 20.96 190.43 122.56 190.43 122.56 145.03 16.86 145.03"/><polygon id="polygon2997" class="cls-1" points="122.56 310.23 122.56 262.93 122.36 263.03 71.76 249.33 68.56 213.13 43.96 213.13 22.96 213.13 29.36 284.43 122.36 310.33 122.56 310.23"/><text class="cls-2" transform="translate(345.56 270.78)">Linux</text><path class="cls-3" d="M121.69,76.92c-3.57.39-2.34,3.71-4.33,3.78S115.8,76.47,121.69,76.92Zm10.78.55c3.48-.9,3.49,2.64,5.39,2S137.83,75,132.47,77.47Zm119.9,231.7c-10.74,5.46-24.76,17.58-30,22.6-3.85,3.73-20,5.58-29,.91-10.63-5.53-5-14.15-21.41-14.56-8.16-.19-16.1-.27-24-.17-7,.1-14.07.31-21.24.69-24.65.22-27.07,16.5-42.77,15.9-10.75-.4-24.31-9-47.6-13.89C19.94,317.21,4.23,316.39.86,309.08S5,293.61,5.51,286.34C6.12,276.87-1.6,264,4.11,259c4.71-4.14,15-1.11,21.69-4.86,7.08-4,9.92-7.27,9.92-16,2.6,8.89-.12,16.26-6,19.87-3.48,2.12-9.95,3.25-15.27,2.7-4.21-.4-6.82.29-8.1,1.91-1.63,2.1-1.11,5.79,1,10.69s4.55,8,4.21,14-6.86,13.13-5.82,18.18c.4,1.94,2.29,3.56,6.82,4.85,7.51,2.13,20.9,4.06,34.12,7.32,14.7,3.64,29.87,10.49,39.3,9.18,28.2-4,12.12-34.51,7.56-41.77C69.72,247.27,54,222.5,41.38,232.33c-3.29,2.56-3.41-6.44-3.27-9.9.54-12.44,6.8-16.79,10.51-26.47,7-18.13,12.39-38.89,23.16-49.62,8-10.35,20.51-27.4,22.9-36.39-2-19.56-2.63-40.15-2.94-58.18-.31-19.18,2.7-36,24.15-47.77,5.23-2.87,12-3.92,19.23-4C148-.14,162.2,3.5,171.28,10.29c14.46,10.83,23.55,33.88,22.49,50.45-.86,12.76,1.42,26.14,5.47,39.88,4.85,16.33,12.52,27.81,24.71,40.87,14.69,15.73,26.12,46.72,29.34,66.35,3,18.34-.92,29.68-4.9,30.25-5.94.88-9.64,19.92-28.22,19-11.86-.57-13-7.65-16.31-13.68-5.29-9.64-10.66-6.62-12.82,3.42-1.11,5.14-.3,12.51,1.33,18.25,3.31,11.74,2.18,22.88.2,36.39-3.8,25.92,17.94,30.82,32.6,18.5,14.46-12.16,17.56-14.1,35.87-20.41,27.6-9.55,18.33-18,3.48-23-13.31-4.52-13.86-27.23-9.09-31.51,1.06,24.39,13.63,27.92,19,31.25C297.23,290.62,265.76,302.36,252.37,309.17ZM190.9,237.73c2.51-3,5.47-3.35,9.37-3.42.6-14.87,23.52-13.77,31-7.55,0-3.45-7.2-6.54-10.08-8,5-16.79,2.65-23.53-.66-39.38-2.52-12.1-13.43-28.38-22-33.48,2.16,1.91,6.26,7.46,10.59,15.61,7.46,14,14.82,34.75,9.92,52.15-1.89,6.65-6.21,7.49-9.17,7.82-13.14,1.39-5.41-15.68-10.87-39.19-6.07-26.14-12.31-28.1-13.87-30.15-7.53-34-15.91-30.61-18.28-43.45-2.13-11.36,9.81-20.75-6.42-23.93-4.94-1-12-6-14.84-6.41s-4.17-18.74,6.09-19.49,12.21,11.7,10.2,16.6c-2.92,4.86.21,6.67,5.28,5.09,4.15-1.29,1.47-12.2,2.46-13.81C167,51.13,160.53,48.88,153.8,47.57c-25.53,2-14.06,30.53-16.65,27.78-3.62-3.87-14.49-.22-14.43-2.7.23-14.56-4.6-23-11.26-23.18-7.41-.21-10.47,10.27-10.91,16.17-.43,5.67,3.33,17.48,6.08,16.57,1.8-.6,4.88-4.25,1.58-4.23-1.7,0-4.27-4-4.54-8.92s1.52-9.83,7.81-9.57c7.39.29,7.32,14.86,6.52,15.43a33.47,33.47,0,0,0-5.73,5.4c-2.35,4-7.06,5-8.79,6.7-3.28,3.32-4,7.08-1.49,8.51,8.45,4.9,5.71,10.35,17.53,10.86a53.46,53.46,0,0,0,18.89-2.86c4.11-1.25,17.33-4.1,20.12-9,1.21-2.08,2.73-2.16,3.74-1.56,1.78,1,2.16,4.5-2.41,5.74-6.54,1.79-13.14,5.31-18.92,7.65s-7.62,3.28-13.07,4.29c-12.27,2.22-21.33-4.48-13.1,3.56,2.73,2.68,5.36,4.35,12.42,4.06,15.46-.62,32.78-19.37,34.49-11,.36,1.72-4.9,4.06-9,6.11-14.5,7.21-24.7,21.43-34,16.51-8.3-4.43-16.56-25.23-16.42-15.91.23,14.37-18.76,27.16-10,43.52-5.66,1.56-18.57,29.05-20.42,43.37-1,8.11.77,18.3-1.15,24-2.8,8.22-15.49-7.84-11.44-27.53.73-3.46.12-4.2-.8-2.52-5.16,9.2-2.32,22,1.75,31,1.78,3.9,5.94,5.62,9,9.09,6.65,7.51,32.09,26.56,36.7,31.13,5.59,5.55,4,18.27-7.86,19.49,6.09,11.59,12,12.7,11.93,31.66,6.89-3.74,4.12-11.91,1.24-17.29-2-3.68-4.65-5.35-4.08-6.22.43-.64,4-3.72,6.11-1.31,6.27,7.1,18.11,8.37,30.85,6.77s26.35-6.12,32.65-16.36c3-4.8,5.09-6.5,6.46-5.66s1.95,4.25,1.8,9.7c-.16,6.05-2.67,12.34-4.23,17.36-1.76,5.69-2.3,9.73,3.19,9.95,1.64-10.53,4.5-20.88,5.33-31.35C190.24,270.94,181.69,248.78,190.9,237.73ZM113,68.65c-.42,2.35-.25,3.81,1.36,3.81.26,0,.54,0,.64-.65.78-4.66-1.61-8.05-2.59-8.32-2.26-.58-2,2.7-.8,2.44C112.3,65.78,113.26,67,113,68.65Zm42-6.4c-2.33.21-1.66,1.38-.5,1.72,1.51.45,2.94,3,3.26,5.88,0,.26,1.94-.41,1.94-1C159.79,64.3,156,62.15,154.94,62.25Z"/></g></g></svg>