<svg xmlns="http://www.w3.org/2000/svg" width="112.062" height="24.906" viewBox="0 0 112.062 24.906">
  <metadata><?xpacket begin="﻿" id="W5M0MpCehiHzreSzNTczkc9d"?>
<x:xmpmeta xmlns:x="adobe:ns:meta/" x:xmptk="Adobe XMP Core 5.6-c140 79.160451, 2017/05/06-01:08:21        ">
   <rdf:RDF xmlns:rdf="http://www.w3.org/1999/02/22-rdf-syntax-ns#">
      <rdf:Description rdf:about=""/>
   </rdf:RDF>
</x:xmpmeta>
                                                                                                    
                                                                                                    
                                                                                                    
                                                                                                    
                                                                                                    
                                                                                                    
                                                                                                    
                                                                                                    
                                                                                                    
                                                                                                    
                                                                                                    
                                                                                                    
                                                                                                    
                                                                                                    
                                                                                                    
                                                                                                    
                                                                                                    
                                                                                                    
                                                                                                    
                                                                                                    
                           
<?xpacket end="w"?></metadata>
<defs>
    <style>
      .cls-1 {
        fill: #fff;
        fill-rule: evenodd;
      }
    </style>
  </defs>
  <path id="MySQL" class="cls-1" d="M326.6,990.715h2.875V979.574l4.449,9.713a2.454,2.454,0,0,0,2.654,1.591,2.419,2.419,0,0,0,2.625-1.591l4.45-9.713v11.141h2.874V979.593a1.7,1.7,0,0,0-1.354-1.881c-2.183-.669-3.648-0.091-4.312,1.356l-4.366,9.585-4.229-9.585c-0.636-1.447-2.128-2.025-4.311-1.356a1.7,1.7,0,0,0-1.355,1.881v11.122Zm22.317-9.068h2.874v6.138c-0.027.333,0.109,1.116,1.683,1.14,0.8,0.013,6.2,0,6.25,0v-7.308h2.881c0.013,0,0,9.966,0,10.009,0.016,2.458-3.107,2.992-4.547,3.033h-9.075v-1.9c0.016,0,9.069,0,9.091,0,1.85-.192,1.632-1.095,1.632-1.4v-0.74H353.6c-2.842-.025-4.652-1.243-4.674-2.643C348.919,987.849,348.982,981.709,348.919,981.647Zm15.9,9.068h8.263a6.492,6.492,0,0,0,2.654-.542,2.567,2.567,0,0,0,1.851-2.315V985.8c0-.814-0.691-1.574-2.045-2.08a7.2,7.2,0,0,0-2.46-.416H369.6c-1.161,0-1.714-.343-1.852-1.1a0.809,0.809,0,0,1-.027-0.253V980.66a0.751,0.751,0,0,1,.027-0.235c0.138-.579.443-0.742,1.465-0.832,0.083,0,.193-0.019.276-0.019H377.7v-1.88h-8.07a7.882,7.882,0,0,0-2.322.235c-1.714.524-2.46,1.356-2.46,2.8v1.646c0,1.266,1.465,2.351,3.925,2.6,0.276,0.018.553,0.036,0.829,0.036h2.985a1.577,1.577,0,0,1,.3.018,2.047,2.047,0,0,1,1.575.561,0.666,0.666,0,0,1,.221.506v1.646a0.937,0.937,0,0,1-.414.669,2.061,2.061,0,0,1-1.216.4c-0.111,0-.194.018-0.3,0.018h-7.932v1.881Zm30.7-3.273c0,1.935,1.465,3.02,4.422,3.237,0.276,0.018.553,0.036,0.829,0.036h7.49v-1.881h-7.545c-1.686,0-2.322-.416-2.322-1.41v-9.73h-2.874v9.748Zm-16.1.1v-6.7c0-1.7,1.218-2.737,3.628-3.063a5.609,5.609,0,0,1,.775-0.054h5.456a6.007,6.007,0,0,1,.8.054c2.41,0.326,3.628,1.36,3.628,3.063v6.7a2.447,2.447,0,0,1-1.71,2.6l2.831,2.509H391.5l-2.291-2.03-2.306.144h-3.074a6.48,6.48,0,0,1-1.689-.236C380.311,990.042,379.425,989.1,379.425,987.54Zm3.1-.163a1.244,1.244,0,0,0,.055.29c0.167,0.78.914,1.215,2.05,1.215h2.611l-2.4-2.126h3.338l2.092,1.854A1.344,1.344,0,0,0,391,987.7a0.935,0.935,0,0,0,.027-0.272V981a0.877,0.877,0,0,0-.027-0.254c-0.167-.724-0.914-1.141-2.022-1.141h-4.348c-1.274,0-2.105.544-2.105,1.4v6.379Zm54.026,6.088a8.546,8.546,0,0,0-3.485.473,0.87,0.87,0,0,0-.738.434,3.047,3.047,0,0,1,.287.551,4.4,4.4,0,0,0,.943,1.065c0.37,0.268.752,0.555,1.148,0.788,0.706,0.413,1.494.65,2.174,1.064,0.4,0.244.8,0.552,1.189,0.828a2.292,2.292,0,0,0,.574.433v-0.039c-0.132-.162-0.166-0.383-0.287-0.552L437.825,998a8.639,8.639,0,0,0-1.887-1.735c-0.56-.387-1.816-0.909-2.05-1.537l-0.041-.039a9.376,9.376,0,0,0,1.23-.276c0.617-.159,1.168-0.118,1.805-0.276l0.861-.237v-0.157c-0.322-.318-0.552-0.738-0.9-1.025a26.17,26.17,0,0,0-2.952-2.128c-0.572-.348-1.28-0.573-1.886-0.868a2.216,2.216,0,0,1-.7-0.315,8.2,8.2,0,0,1-.738-1.34c-0.515-.953-1.02-1.993-1.476-3a16.027,16.027,0,0,0-.9-1.971,17.815,17.815,0,0,0-6.971-6.464,8.589,8.589,0,0,0-2.3-.709l-1.353-.079a7.3,7.3,0,0,1-.82-0.591c-1.028-.625-3.666-1.983-4.428-0.2-0.481,1.127.719,2.227,1.148,2.8a8.443,8.443,0,0,1,.9,1.3c0.142,0.3.166,0.593,0.287,0.907a20.248,20.248,0,0,0,.943,2.325,8.232,8.232,0,0,0,.656,1.064,1.235,1.235,0,0,1,.451.592,4.7,4.7,0,0,0-.41,1.3,7.286,7.286,0,0,0,.533,5.794c0.286,0.442.96,1.388,1.886,1.025,0.811-.317.63-1.3,0.862-2.168a1.222,1.222,0,0,1,.123-0.473v0.04l0.738,1.418a9.814,9.814,0,0,0,2.337,2.326,5.229,5.229,0,0,0,1.312,1.025v-0.039h-0.041a2.279,2.279,0,0,0-.41-0.355,9.208,9.208,0,0,1-.943-1.025,23.781,23.781,0,0,1-2.009-3.153c-0.288-.531-0.537-1.116-0.779-1.656a1.224,1.224,0,0,0-.287-0.63,7.79,7.79,0,0,0-.861,1.182,9.719,9.719,0,0,0-.492,2.6,0.142,0.142,0,0,0-.083.039,1.671,1.671,0,0,1-.984-1.182,7.188,7.188,0,0,1-.164-4.612c0.122-.365.675-1.515,0.451-1.853a2.931,2.931,0,0,0-.656-0.788,6.158,6.158,0,0,1-.656-1.1c-0.439-.956-0.644-2.029-1.107-3a8.732,8.732,0,0,0-.9-1.34,7.809,7.809,0,0,1-.984-1.34,0.777,0.777,0,0,1-.082-0.71,0.316,0.316,0,0,1,.246-0.236,1.694,1.694,0,0,1,1.148.157,10.212,10.212,0,0,1,1.763.867,3.8,3.8,0,0,0,.861.592h0.369c0.578,0.127,1.224.039,1.764,0.2a10.837,10.837,0,0,1,2.583,1.182,15.626,15.626,0,0,1,5.618,5.913c0.212,0.392.3,0.766,0.491,1.182,0.378,0.839.855,1.7,1.23,2.523a11.641,11.641,0,0,0,1.272,2.325,5.868,5.868,0,0,0,1.845.749,11.1,11.1,0,0,1,1.23.473c0.621,0.36,1.222.788,1.8,1.182A3.029,3.029,0,0,1,436.553,993.465Zm-18.329-15.017a3.027,3.027,0,0,0-.738.078v0.04h0.041a5.536,5.536,0,0,0,.574.709q0.206,0.414.41,0.828l0.041-.039a0.946,0.946,0,0,0,.369-0.868,2.736,2.736,0,0,1-.2-0.354A3.281,3.281,0,0,0,418.224,978.448Zm-8.613,10.333a2.119,2.119,0,1,0,2.119-2.079A2.071,2.071,0,0,0,409.611,988.781Zm3.762,0a1.644,1.644,0,1,1-1.643-1.647A1.624,1.624,0,0,1,413.373,988.781Zm-1.073,1.186h0.475l-0.695-1.042a0.624,0.624,0,0,0,.655-0.649c0-.482-0.31-0.682-0.909-0.682h-0.944v2.373h0.407v-1.025h0.379Zm-1.011-1.358v-0.682h0.469c0.243,0,.537.044,0.537,0.322,0,0.332-.266.36-0.571,0.36h-0.435Z" transform="translate(-326.594 -974.188)"/>
</svg>
