<svg 
 xmlns="http://www.w3.org/2000/svg"
 xmlns:xlink="http://www.w3.org/1999/xlink"
 width="53px" height="29px">
<path fill-rule="evenodd"  fill="rgb(255, 255, 255)"
 d="M26.415,28.217 C11.827,28.217 0.000,22.030 0.000,14.402 C0.000,6.775 11.827,0.587 26.415,0.587 C41.003,0.587 52.830,6.775 52.830,14.402 C52.830,22.035 41.003,28.217 26.415,28.217 ZM17.078,8.236 C14.544,8.284 10.685,8.236 10.685,8.236 L7.968,22.051 L10.981,22.051 L11.774,18.379 L14.588,18.401 C14.588,18.401 19.536,18.797 20.938,13.990 C22.102,9.965 19.612,8.188 17.078,8.236 ZM28.863,8.236 L25.714,8.236 L26.480,4.527 L23.429,4.527 L20.647,18.406 L23.628,18.406 L25.218,10.479 C25.218,10.479 27.105,10.484 28.367,10.489 C29.876,10.489 29.305,12.047 29.175,12.962 C28.857,15.189 28.135,18.401 28.135,18.401 L31.116,18.401 C31.116,18.401 32.043,14.750 32.539,11.330 C33.035,7.909 28.863,8.236 28.863,8.236 ZM40.825,8.236 C38.291,8.284 34.431,8.236 34.431,8.236 L31.714,22.051 L34.728,22.051 L35.520,18.379 L38.334,18.401 C38.334,18.401 43.288,18.797 44.679,13.995 C45.844,9.965 43.353,8.188 40.825,8.236 ZM38.464,16.233 L35.865,16.233 L37.008,10.393 L39.790,10.393 C39.790,10.393 41.930,10.227 41.774,12.448 C41.628,16.313 38.464,16.233 38.464,16.233 ZM14.717,16.233 L12.119,16.233 L13.261,10.393 L16.043,10.393 C16.043,10.393 18.178,10.227 18.027,12.448 C17.881,16.313 14.717,16.233 14.717,16.233 Z"/>
</svg>