<svg 
 xmlns="http://www.w3.org/2000/svg"
 xmlns:xlink="http://www.w3.org/1999/xlink"
 width="129px" height="32px">
<path fill-rule="evenodd"  fill="rgb(255, 255, 255)"
 d="M121.588,20.954 L121.588,9.539 L123.935,9.539 L123.935,18.799 L128.999,18.799 L128.999,20.954 L121.588,20.954 ZM117.601,22.947 L116.058,20.793 C115.340,21.061 114.579,21.195 113.775,21.195 C112.049,21.195 110.629,20.632 109.515,19.507 C108.400,18.381 107.843,16.961 107.843,15.246 C107.843,13.532 108.400,12.111 109.515,10.986 C110.629,9.861 112.049,9.298 113.775,9.298 C115.500,9.298 116.920,9.861 118.035,10.986 C119.150,12.111 119.707,13.532 119.707,15.246 C119.707,17.047 119.102,18.510 117.891,19.635 L120.270,22.947 L117.601,22.947 ZM116.267,12.554 C115.624,11.873 114.793,11.533 113.775,11.533 C112.757,11.533 111.926,11.873 111.283,12.554 C110.640,13.234 110.318,14.132 110.318,15.246 C110.318,16.361 110.640,17.259 111.283,17.939 C111.926,18.620 112.757,18.960 113.775,18.960 C114.793,18.960 115.624,18.620 116.267,17.939 C116.910,17.259 117.231,16.361 117.231,15.246 C117.231,14.132 116.910,13.234 116.267,12.554 ZM101.504,13.815 C101.867,13.916 102.266,14.028 102.701,14.149 C103.136,14.271 103.577,14.393 104.023,14.518 C104.468,14.642 104.872,14.822 105.233,15.057 C105.594,15.292 105.886,15.634 106.109,16.082 C106.332,16.531 106.444,17.067 106.444,17.690 C106.444,18.719 106.028,19.558 105.198,20.206 C104.367,20.855 103.277,21.179 101.926,21.179 C101.165,21.179 100.496,21.069 99.917,20.849 C99.338,20.630 98.882,20.332 98.550,19.957 C98.218,19.582 97.969,19.175 97.803,18.735 C97.636,18.296 97.543,17.830 97.521,17.336 L99.836,17.336 C99.869,17.840 100.072,18.258 100.447,18.590 C100.822,18.923 101.358,19.089 102.055,19.089 C102.687,19.089 103.180,18.974 103.534,18.743 C103.888,18.513 104.065,18.188 104.065,17.770 C104.065,17.470 103.952,17.223 103.727,17.030 C103.502,16.837 103.209,16.690 102.848,16.590 C102.487,16.489 102.092,16.379 101.665,16.259 C101.237,16.140 100.804,16.019 100.365,15.896 C99.927,15.774 99.528,15.598 99.169,15.367 C98.810,15.137 98.518,14.804 98.293,14.370 C98.068,13.936 97.955,13.419 97.955,12.819 C97.955,11.822 98.330,10.986 99.081,10.311 C99.831,9.636 100.844,9.298 102.119,9.298 C103.405,9.298 104.426,9.663 105.182,10.391 C105.938,11.120 106.331,12.026 106.364,13.108 L104.065,13.108 C104.043,12.594 103.858,12.179 103.510,11.862 C103.162,11.546 102.687,11.388 102.087,11.388 C101.541,11.388 101.101,11.506 100.769,11.741 C100.437,11.977 100.270,12.277 100.270,12.644 C100.270,12.947 100.385,13.193 100.615,13.381 C100.845,13.569 101.142,13.714 101.504,13.815 ZM90.319,17.401 C90.394,17.980 90.608,18.422 90.962,18.727 C91.316,19.033 91.782,19.185 92.361,19.185 C92.725,19.185 93.055,19.108 93.349,18.952 C93.644,18.797 93.856,18.569 93.984,18.269 L96.283,18.269 C96.037,19.126 95.552,19.820 94.829,20.351 C94.105,20.881 93.261,21.147 92.296,21.147 C91.053,21.147 90.035,20.734 89.242,19.909 C88.449,19.084 88.052,18.022 88.052,16.726 C88.052,15.472 88.449,14.427 89.242,13.591 C90.035,12.755 91.048,12.337 92.280,12.337 C93.513,12.337 94.518,12.752 95.295,13.583 C96.072,14.413 96.460,15.461 96.460,16.726 L96.428,17.401 L90.319,17.401 ZM93.550,14.603 C93.218,14.314 92.789,14.169 92.264,14.169 C91.750,14.169 91.326,14.311 90.994,14.595 C90.662,14.879 90.448,15.268 90.351,15.761 L94.177,15.761 C94.092,15.279 93.883,14.893 93.550,14.603 ZM85.729,15.086 C85.391,15.439 85.223,15.997 85.223,16.758 L85.223,20.954 L82.940,20.954 L82.940,12.529 L85.046,12.529 L85.046,13.623 C85.528,12.840 86.321,12.449 87.425,12.449 L87.699,12.465 L87.699,14.603 C87.538,14.571 87.388,14.555 87.248,14.555 C86.573,14.555 86.067,14.732 85.729,15.086 ZM76.863,24.475 C75.673,24.475 74.749,24.158 74.090,23.526 C73.431,22.893 73.063,22.186 72.988,21.404 L75.271,21.404 C75.421,22.143 75.963,22.513 76.895,22.513 C77.463,22.513 77.897,22.368 78.197,22.079 C78.497,21.790 78.647,21.388 78.647,20.873 L78.647,19.700 C78.101,20.429 77.281,20.793 76.188,20.793 C75.041,20.793 74.114,20.389 73.406,19.579 C72.699,18.770 72.345,17.765 72.345,16.565 C72.345,15.365 72.699,14.360 73.406,13.550 C74.114,12.741 75.041,12.337 76.188,12.337 C77.388,12.337 78.267,12.744 78.824,13.558 L78.824,12.529 L80.930,12.529 L80.930,20.632 C80.930,21.758 80.566,22.679 79.837,23.397 C79.108,24.115 78.117,24.475 76.863,24.475 ZM78.149,14.957 C77.774,14.550 77.281,14.346 76.670,14.346 C76.059,14.346 75.566,14.550 75.191,14.957 C74.816,15.365 74.628,15.900 74.628,16.565 C74.628,17.229 74.816,17.765 75.191,18.172 C75.566,18.580 76.059,18.783 76.670,18.783 C77.281,18.783 77.774,18.580 78.149,18.172 C78.524,17.765 78.712,17.229 78.712,16.565 C78.712,15.900 78.524,15.365 78.149,14.957 ZM70.255,18.189 C70.255,18.735 70.539,19.008 71.107,19.008 L71.638,18.928 L71.638,20.905 C71.380,20.970 71.021,21.002 70.561,21.002 C68.835,21.002 67.972,20.145 67.972,18.430 L67.972,14.330 L66.831,14.330 L66.831,12.529 L67.972,12.529 L67.972,10.440 L70.255,10.440 L70.255,12.529 L71.654,12.529 L71.654,14.330 L70.255,14.330 L70.255,18.189 ZM63.173,15.833 C63.629,15.903 64.084,16.002 64.540,16.131 C64.995,16.259 65.384,16.517 65.706,16.902 C66.027,17.288 66.188,17.803 66.188,18.446 C66.188,19.228 65.869,19.874 65.231,20.383 C64.593,20.892 63.723,21.147 62.619,21.147 C60.325,21.147 59.109,20.171 58.969,18.221 L61.284,18.221 C61.306,18.532 61.432,18.791 61.662,19.000 C61.893,19.209 62.233,19.314 62.683,19.314 C63.112,19.314 63.439,19.244 63.664,19.105 C63.889,18.966 64.001,18.778 64.001,18.542 C64.001,18.285 63.841,18.095 63.519,17.971 C63.198,17.848 62.809,17.749 62.354,17.674 C61.898,17.599 61.440,17.497 60.979,17.369 C60.518,17.240 60.127,16.988 59.805,16.613 C59.484,16.238 59.323,15.740 59.323,15.118 C59.323,14.336 59.634,13.676 60.256,13.140 C60.877,12.605 61.692,12.337 62.699,12.337 C63.846,12.337 64.698,12.626 65.255,13.205 C65.813,13.783 66.113,14.443 66.156,15.182 L63.953,15.182 C63.932,14.893 63.811,14.652 63.591,14.459 C63.372,14.266 63.069,14.169 62.683,14.169 C62.319,14.169 62.035,14.247 61.831,14.402 C61.627,14.558 61.526,14.754 61.526,14.989 C61.526,15.246 61.686,15.434 62.008,15.552 C62.329,15.670 62.718,15.764 63.173,15.833 ZM53.648,21.147 C52.330,21.147 51.263,20.721 50.449,19.869 C49.634,19.016 49.227,17.974 49.227,16.742 C49.227,15.509 49.634,14.467 50.449,13.615 C51.263,12.763 52.330,12.337 53.648,12.337 C54.966,12.337 56.033,12.763 56.847,13.615 C57.662,14.467 58.069,15.509 58.069,16.742 C58.069,17.974 57.662,19.016 56.847,19.869 C56.033,20.721 54.966,21.147 53.648,21.147 ZM55.183,14.989 C54.781,14.561 54.269,14.346 53.648,14.346 C53.026,14.346 52.515,14.561 52.113,14.989 C51.711,15.418 51.510,16.002 51.510,16.742 C51.510,17.481 51.711,18.065 52.113,18.494 C52.515,18.923 53.026,19.137 53.648,19.137 C54.269,19.137 54.781,18.923 55.183,18.494 C55.585,18.065 55.786,17.481 55.786,16.742 C55.786,16.002 55.585,15.418 55.183,14.989 ZM44.886,16.629 L42.346,16.629 L42.346,20.954 L39.999,20.954 L39.999,9.539 L44.886,9.539 C46.194,9.539 47.169,9.866 47.812,10.520 C48.455,11.174 48.777,12.031 48.777,13.092 C48.777,14.143 48.447,14.995 47.788,15.648 C47.129,16.302 46.161,16.629 44.886,16.629 ZM46.044,12.071 C45.786,11.820 45.401,11.693 44.886,11.693 L42.346,11.693 L42.346,14.475 L44.886,14.475 C45.401,14.475 45.786,14.352 46.044,14.105 C46.301,13.859 46.429,13.521 46.429,13.092 C46.429,12.664 46.301,12.323 46.044,12.071 ZM25.445,22.431 C25.438,22.431 25.432,22.430 25.425,22.430 L25.085,22.400 C25.065,22.398 25.046,22.395 25.026,22.391 C24.548,22.287 24.455,22.349 24.454,22.350 C24.426,22.371 24.401,22.436 24.379,22.527 C24.195,24.161 23.859,26.838 23.657,28.000 C23.257,30.315 22.222,31.365 19.837,31.874 C19.432,31.961 19.063,32.000 18.727,32.000 C16.443,32.000 15.720,30.198 15.424,29.461 C15.065,28.567 14.939,25.652 14.962,22.678 C13.802,23.705 12.236,24.027 10.451,23.583 C10.326,23.551 9.397,23.303 9.093,22.739 C9.014,22.611 8.967,22.466 8.970,22.303 C8.986,21.533 10.089,21.306 10.504,21.221 C11.963,20.921 12.057,20.802 12.511,20.228 C12.603,20.112 12.710,19.976 12.842,19.821 C12.841,19.819 12.841,19.818 12.841,19.816 C12.194,19.796 11.563,19.627 10.981,19.313 C10.507,19.821 9.452,20.971 8.380,22.255 C7.409,23.418 6.492,23.425 5.894,23.226 C5.106,22.964 4.340,22.166 3.600,20.840 C2.938,19.667 2.297,18.073 1.682,16.064 C0.698,12.851 0.075,9.497 0.020,8.406 C-0.143,5.165 0.697,2.870 2.515,1.587 C4.038,0.511 6.173,0.185 8.860,0.616 C10.414,0.865 11.685,1.300 12.176,1.482 C13.308,0.713 14.676,0.336 16.257,0.361 C16.878,0.371 17.462,0.432 18.012,0.532 C18.248,0.562 18.478,0.598 18.702,0.640 C19.164,0.462 20.870,-0.021 22.872,0.001 C25.937,0.033 28.468,1.212 30.194,3.409 C30.264,3.498 30.327,3.597 30.386,3.705 C31.305,5.309 30.596,8.625 30.232,10.031 C29.435,13.108 27.959,16.406 26.163,19.137 C26.474,19.337 27.330,19.617 29.542,19.162 C30.252,19.016 30.704,19.121 30.890,19.472 C30.921,19.520 30.946,19.572 30.966,19.630 C31.247,20.480 29.693,21.458 28.831,21.857 C28.002,22.241 26.578,22.482 25.445,22.431 ZM10.722,22.194 C10.393,22.262 10.195,22.329 10.076,22.382 C10.216,22.467 10.425,22.561 10.654,22.618 C11.920,22.934 13.682,22.955 14.892,21.268 C15.035,21.068 14.991,20.811 14.952,20.675 C14.870,20.388 14.666,20.128 14.458,20.042 C14.238,19.951 14.102,19.896 13.873,20.097 C13.853,20.160 13.820,20.220 13.775,20.270 C13.567,20.502 13.416,20.692 13.283,20.860 C12.704,21.593 12.439,21.842 10.722,22.194 ZM12.939,18.826 C13.042,18.406 13.207,17.964 13.385,17.489 L13.455,17.301 C13.546,17.058 13.652,16.822 13.765,16.574 C14.310,15.366 14.989,13.864 14.207,10.259 C14.055,9.562 13.692,9.158 13.095,9.021 C11.788,8.723 9.955,9.702 9.559,10.051 C9.563,10.130 9.569,10.230 9.576,10.344 C9.624,11.160 9.715,12.679 9.470,14.422 C9.295,15.668 9.677,16.883 10.517,17.756 C11.177,18.443 12.046,18.823 12.939,18.826 ZM3.085,2.416 C1.553,3.496 0.849,5.511 0.995,8.406 C1.040,9.322 1.622,12.588 2.616,15.835 C3.221,17.810 3.869,19.400 4.510,20.519 C5.079,21.499 5.642,22.108 6.167,22.282 C6.339,22.339 6.864,22.514 7.623,21.604 C8.696,20.317 9.705,19.222 10.169,18.727 C10.052,18.628 9.940,18.523 9.832,18.410 C8.789,17.327 8.315,15.825 8.530,14.292 C8.762,12.641 8.675,11.183 8.629,10.400 C8.616,10.186 8.607,10.031 8.607,9.921 C8.600,9.637 8.536,4.981 11.244,2.255 C11.248,2.251 11.253,2.247 11.257,2.243 C9.560,1.695 5.542,0.685 3.085,2.416 ZM17.840,1.462 C17.342,1.399 16.816,1.363 16.269,1.354 C14.788,1.330 13.527,1.703 12.520,2.464 C12.462,2.508 12.396,2.536 12.327,2.550 C12.186,2.665 12.051,2.787 11.921,2.918 C10.185,4.662 9.721,7.419 9.599,8.894 C9.679,8.849 9.766,8.803 9.861,8.755 C10.300,8.533 11.183,8.145 12.147,8.046 C13.755,7.880 14.816,8.595 15.134,10.059 C15.982,13.968 15.200,15.698 14.630,16.962 C14.524,17.196 14.424,17.417 14.345,17.630 L14.274,17.819 C14.106,18.269 13.950,18.684 13.861,19.052 C14.281,18.945 14.630,19.090 14.821,19.168 C15.300,19.366 15.700,19.844 15.864,20.415 C15.891,20.508 15.910,20.601 15.923,20.692 C15.937,20.740 15.945,20.790 15.943,20.843 C15.932,21.244 15.924,21.641 15.918,22.032 C16.326,23.025 16.382,24.811 16.360,25.560 C16.315,27.084 16.282,28.185 16.570,28.966 C16.605,29.060 16.638,29.162 16.673,29.269 C16.990,30.235 17.350,31.331 19.377,30.898 C21.437,30.458 22.464,29.375 22.612,27.489 C22.671,26.731 22.767,26.385 22.852,26.079 C22.933,25.785 22.998,25.553 23.006,24.920 C23.006,24.871 23.014,24.823 23.030,24.776 L23.225,24.192 C23.260,23.899 23.285,23.633 23.308,23.397 C23.345,23.004 23.378,22.670 23.439,22.391 C23.495,21.893 23.536,21.500 23.553,21.290 C23.465,19.510 24.428,19.154 24.964,19.000 C24.896,18.902 24.805,18.789 24.712,18.674 C24.408,18.295 23.992,17.777 23.670,17.000 C23.621,16.881 23.465,16.602 23.284,16.278 C22.296,14.514 20.242,10.842 21.570,8.950 C22.180,8.080 23.384,7.732 25.155,7.911 C24.919,7.214 24.329,5.922 23.240,4.639 C22.180,3.391 20.434,1.935 17.840,1.462 ZM25.120,10.210 C25.189,9.767 25.253,9.342 25.261,8.874 C23.387,8.643 22.641,9.073 22.347,9.492 C21.359,10.898 23.288,14.346 24.112,15.818 C24.324,16.196 24.477,16.469 24.547,16.639 C24.625,16.828 24.710,16.998 24.798,17.154 C25.365,15.952 25.218,14.735 25.076,13.552 C25.005,12.966 24.932,12.361 24.951,11.778 C24.970,11.180 25.047,10.687 25.120,10.210 ZM29.563,4.172 C29.535,4.124 29.505,4.079 29.473,4.039 C27.935,2.080 25.764,1.056 23.019,0.995 C21.960,0.972 21.013,1.101 20.310,1.243 C21.915,1.966 23.095,3.020 23.908,3.963 C25.419,5.716 26.161,7.653 26.222,8.300 C26.231,8.399 26.224,8.483 26.206,8.553 C26.230,9.228 26.143,9.801 26.058,10.354 C25.988,10.803 25.917,11.267 25.899,11.809 C25.883,12.320 25.948,12.863 26.018,13.439 C26.187,14.842 26.377,16.424 25.405,18.024 C25.421,18.044 25.437,18.063 25.453,18.083 C25.492,18.131 25.530,18.179 25.567,18.226 C29.193,12.539 30.530,5.980 29.563,4.172 ZM25.658,19.972 C25.590,19.927 25.531,19.881 25.478,19.834 C25.420,19.854 25.359,19.871 25.298,19.889 C24.859,20.011 24.445,20.127 24.499,21.236 C24.615,21.330 25.105,21.482 26.067,21.437 C26.939,21.396 27.857,21.206 28.405,20.952 C28.986,20.683 29.411,20.387 29.681,20.151 C27.775,20.534 26.421,20.474 25.658,19.972 ZM23.631,10.234 C23.597,10.239 23.563,10.241 23.530,10.241 C23.138,10.241 22.806,9.928 22.780,9.745 C22.748,9.510 23.133,9.331 23.531,9.276 C23.928,9.221 24.348,9.288 24.381,9.523 L24.381,9.523 C24.396,9.628 24.316,9.791 24.176,9.936 C24.085,10.032 23.893,10.198 23.631,10.234 ZM12.953,9.513 C13.376,9.572 13.812,9.772 13.771,10.071 C13.737,10.311 13.357,10.635 12.940,10.635 C12.904,10.635 12.868,10.632 12.831,10.627 C12.581,10.593 12.328,10.435 12.154,10.207 C12.093,10.126 11.994,9.969 12.013,9.827 C12.021,9.774 12.048,9.696 12.137,9.629 C12.295,9.510 12.608,9.465 12.953,9.513 Z"/>
</svg>