<svg xmlns="http://www.w3.org/2000/svg" width="107.625" height="26.718" viewBox="0 0 107.625 26.718">
  <metadata><?xpacket begin="﻿" id="W5M0MpCehiHzreSzNTczkc9d"?>
<x:xmpmeta xmlns:x="adobe:ns:meta/" x:xmptk="Adobe XMP Core 5.6-c140 79.160451, 2017/05/06-01:08:21        ">
   <rdf:RDF xmlns:rdf="http://www.w3.org/1999/02/22-rdf-syntax-ns#">
      <rdf:Description rdf:about=""/>
   </rdf:RDF>
</x:xmpmeta>
                                                                                                    
                                                                                                    
                                                                                                    
                                                                                                    
                                                                                                    
                                                                                                    
                                                                                                    
                                                                                                    
                                                                                                    
                                                                                                    
                                                                                                    
                                                                                                    
                                                                                                    
                                                                                                    
                                                                                                    
                                                                                                    
                                                                                                    
                                                                                                    
                                                                                                    
                                                                                                    
                           
<?xpacket end="w"?></metadata>
<defs>
    <style>
      .cls-1 {
        fill: #fff;
        fill-rule: evenodd;
      }
    </style>
  </defs>
  <path id="Symfony" class="cls-1" d="M298.256,970.584a13.373,13.373,0,1,0,13.628,13.371A13.5,13.5,0,0,0,298.256,970.584Zm7.349,7.739a0.945,0.945,0,0,1-.894-1.506,0.813,0.813,0,0,0,.167-0.42c-0.013-.353-0.559-0.367-0.708-0.36-2.045.066-2.585,2.775-3.021,4.977l-0.215,1.162a3.723,3.723,0,0,0,2.481-.336c0.657-.418-0.184-0.847-0.078-1.324a0.961,0.961,0,0,1,.914-0.728,0.932,0.932,0,0,1,.846,1.014c-0.018.853-1.173,2.027-3.482,1.979-0.282-.006-0.54-0.026-0.782-0.054l-0.435,2.359a13.411,13.411,0,0,1-2.764,6.36,5.5,5.5,0,0,1-3.934,2.17c-1.354.046-2.252-.663-2.285-1.608a1.425,1.425,0,0,1,1.337-1.434,1.148,1.148,0,0,1,1.242,1.083,0.715,0.715,0,0,1-.425.751,0.506,0.506,0,0,0-.289.395,0.35,0.35,0,0,0,.4.282,2.156,2.156,0,0,0,1.218-.483c1.32-1.079,1.827-2.958,2.493-6.381l0.139-.829a36.646,36.646,0,0,1,.862-3.59c-0.93-.687-1.488-1.539-2.739-1.872a1.509,1.509,0,0,0-1.748.422,1.225,1.225,0,0,0,.13,1.655l0.694,0.753c0.852,0.967,1.319,1.718,1.143,2.729-0.277,1.614-2.237,2.852-4.554,2.153-1.978-.6-2.347-1.97-2.109-2.728a0.933,0.933,0,0,1,1.276-.633,1.08,1.08,0,0,1,.624,1.362,1.937,1.937,0,0,1-.106.271,3.566,3.566,0,0,0-.239.434c-0.128.406,0.44,0.694,0.835,0.814a1.554,1.554,0,0,0,1.968-.889,1.237,1.237,0,0,0-.386-1.269l-0.837-.879a3.121,3.121,0,0,1-.815-2.9,2.8,2.8,0,0,1,.977-1.4,3.575,3.575,0,0,1,3.194-.572,7.61,7.61,0,0,1,2.883,1.963,11.485,11.485,0,0,1,2.137-3.858,4.916,4.916,0,0,1,3.492-1.831c1.383-.044,2.429.57,2.464,1.544A1.158,1.158,0,0,1,305.605,978.323Zm-53.113,1.87a5.047,5.047,0,0,1,5.249,5.309,5.259,5.259,0,1,1-10.518,0A5.052,5.052,0,0,1,252.492,980.193Zm0,9.109c2.23,0,3.222-1.989,3.222-3.8,0-1.928-1.2-3.8-3.222-3.8-2.047,0-3.243,1.869-3.243,3.8C249.249,987.313,250.242,989.3,252.492,989.3Zm-5.53-8.165v-0.7h-2.737v-0.964c0-1.373.2-2.408,1.844-2.408,0.03,0,.062,0,0.093,0,0,0,0,0,.007,0a0.817,0.817,0,0,0,.86-0.778l0.033-.612a7.922,7.922,0,0,0-1.277-.119c-2.817,0-3.465,1.61-3.465,4.077v0.805h-2.435v0.787a0.859,0.859,0,0,0,.853.723l0.007,0h1.575v8.63h1.052a0.86,0.86,0,0,0,.852-0.734v-7.9h1.906a0.856,0.856,0,0,0,.832-0.807h0Zm-25.38-.7-0.01,0a1.1,1.1,0,0,0-.96.637l-2.621,7.753H217.95l-2.564-7.749a1.1,1.1,0,0,0-.962-0.641s-0.006,0-.01,0h-1.329l3.507,9.466a5.57,5.57,0,0,1,.366,1.074c0,0.2-.568,2.5-2.272,2.5-0.041,0-.084,0-0.125-0.007a0.8,0.8,0,0,0-.835.733l-0.052.647a6.421,6.421,0,0,0,1.3.139c2.513,0,3.263-2.248,3.973-4.2l3.81-10.361h-1.173Zm-12.112,2.06c-1.573-.79-3.295-1.327-3.325-2.916,0-1.687,1.586-2.131,2.8-2.129h0.014a6.251,6.251,0,0,1,1.365.14,0.054,0.054,0,0,1,.011-0.006,0.815,0.815,0,0,0,.854-0.726l0.035-.613a10.285,10.285,0,0,0-2.359-.294c-2.649.017-4.615,1.324-4.622,3.819,0,2.182,1.5,3.027,3.114,3.793,1.581,0.746,3.312,1.361,3.327,3.162-0.009,1.878-1.857,2.57-3.13,2.573a8,8,0,0,1-2.235-.395,0.785,0.785,0,0,0-.832.79l-0.058.545a9.6,9.6,0,0,0,2.862.557h0.011c2.967-.022,5.273-1.182,5.283-4.2C212.584,984.269,211.075,983.292,209.47,982.492Zm28.818,8.082h0a0.859,0.859,0,0,0,.84-0.662v-5.841c0-2.208-.95-3.878-3.587-3.878a3.7,3.7,0,0,0-3.2,1.969,3.055,3.055,0,0,0-2.938-1.969,3.509,3.509,0,0,0-3.284,1.71h-0.041v-0.63a0.856,0.856,0,0,0-.863-0.839,0.094,0.094,0,0,1-.009,0H224.3v10.143h1.033a0.858,0.858,0,0,0,.865-0.849,0.05,0.05,0,0,1,.008-0.026v-4.237c0-1.888.77-3.757,2.715-3.757,1.54,0,1.846,1.57,1.846,2.823v6.045h1.048a0.855,0.855,0,0,0,.856-0.773v-4.338c0-1.888.771-3.757,2.716-3.757,1.54,0,1.845,1.57,1.845,2.823v6.045h1.061Zm29.444,0h0a0.856,0.856,0,0,0,.861-0.811v-5.215c0-2.724-1.2-4.355-3.873-4.355a3.731,3.731,0,0,0-3.385,1.851H261.3v-0.758a0.008,0.008,0,0,1,0,0,0.857,0.857,0,0,0-.864-0.849,0.046,0.046,0,0,1-.009,0h-0.97v10.143H260.5a0.856,0.856,0,0,0,.856-0.783V985.88c0-2.465.974-4.175,3.142-4.175,1.664,0.1,2.188,1.251,2.188,3.618v5.25h1.045Zm10.257-10.142-0.01,0a1.1,1.1,0,0,0-.961.637l-2.62,7.753h-0.043l-2.564-7.749a1.1,1.1,0,0,0-.961-0.641s-0.007,0-.01,0h-1.329L273,989.9a5.583,5.583,0,0,1,.367,1.074c0,0.2-.569,2.5-2.273,2.5-0.041,0-.083,0-0.125-0.007a0.8,0.8,0,0,0-.836.733l-0.051.647a6.421,6.421,0,0,0,1.3.139c2.513,0,3.263-2.248,3.974-4.2l3.81-10.361h-1.173Z" transform="translate(-204.25 -970.594)"/>
</svg>
