<svg class="logosvg" xmlns="http://www.w3.org/2000/svg" xmlns:xlink="http://www.w3.org/1999/xlink" width="89px" height="44px">
  <defs>
  <linearGradient id="grad1" x1="0%" y1="0%" x2="100%" y2="0%">
    <stop offset="0%" style="stop-color: rgb(248, 58, 56);stop-opacity:1" />
    <stop offset="100%" style="stop-color: rgb(175, 0, 91);stop-opacity:1" />
  </linearGradient>
  </defs>
    <path fill-rule="evenodd" fill="url(#grad1)" d="M83.629,5.436 L56.966,5.429 L47.703,15.913 L47.728,28.175 L44.502,31.608 L41.310,28.322 L41.308,15.929 L32.033,5.429 L5.369,5.436 L-0.000,-0.002 L34.238,-0.002 L44.499,11.282 L54.761,-0.002 L88.998,-0.002 L83.629,5.436 ZM35.247,14.046 L13.796,14.046 L8.509,8.725 L30.566,8.725 L35.247,14.046 ZM37.978,30.059 L44.498,36.484 L51.006,30.043 L51.006,17.398 L72.735,17.443 L67.431,22.781 L56.710,22.781 L56.729,32.430 L44.499,44.001 L32.269,32.430 L32.288,22.781 L21.567,22.781 L16.263,17.443 L37.978,17.398 L37.978,30.059 ZM58.432,8.725 L80.490,8.725 L75.201,14.046 L53.752,14.046 L58.432,8.725 Z"
    />
</svg>
