<svg xmlns="http://www.w3.org/2000/svg" width="110.469" height="18.532" viewBox="0 0 110.469 18.532">
  <metadata><?xpacket begin="﻿" id="W5M0MpCehiHzreSzNTczkc9d"?>
<x:xmpmeta xmlns:x="adobe:ns:meta/" x:xmptk="Adobe XMP Core 5.6-c140 79.160451, 2017/05/06-01:08:21        ">
   <rdf:RDF xmlns:rdf="http://www.w3.org/1999/02/22-rdf-syntax-ns#">
      <rdf:Description rdf:about=""/>
   </rdf:RDF>
</x:xmpmeta>
                                                                                                    
                                                                                                    
                                                                                                    
                                                                                                    
                                                                                                    
                                                                                                    
                                                                                                    
                                                                                                    
                                                                                                    
                                                                                                    
                                                                                                    
                                                                                                    
                                                                                                    
                                                                                                    
                                                                                                    
                                                                                                    
                                                                                                    
                                                                                                    
                                                                                                    
                                                                                                    
                           
<?xpacket end="w"?></metadata>
<defs>
    <style>
      .cls-1 {
        fill: #fff;
        fill-rule: evenodd;
      }
    </style>
  </defs>
  <path id="zend" class="cls-1" d="M100.934,979s0-5.1,5.014-5.1h15.037s0,5.1-5.014,5.1H100.934Zm0,6.518s0-5.091,5.006-5.091h7.52s0,5.1-5.013,5.1Zm0,6.519s0-5.112,5.006-5.112h2.507s0,5.1-5.014,5.1Zm-1.689-3.983v4.071H83.123l10.386-14.417H84.593v-4.07H101.41L91.074,988.057h8.171Zm30.492-6.369h-5.225v-0.952l4.025-5.9h-3.848v-0.908h4.943v0.923l-4.045,5.925h4.15v0.908Zm5.7-.916v0.916h-4.694v-7.756h4.694v0.916H131.75v2.121h3.438v0.916H131.75v2.893Zm5.356,0.916-3.314-6.708v6.708h-0.927v-7.756h1.409l3.017,6.154v-6.154h0.927v7.756H140.8Zm8.132-1.95a3.343,3.343,0,0,1-1.112,1.335,3.394,3.394,0,0,1-1.154.5,7.327,7.327,0,0,1-1.493.126h-1.724v-7.764h1.7a6.572,6.572,0,0,1,1.648.166,3.417,3.417,0,0,1,1.03.45,3.321,3.321,0,0,1,1.121,1.319,4.459,4.459,0,0,1,.393,1.949,4.339,4.339,0,0,1-.412,1.92v0Zm-0.91-3.467a2.229,2.229,0,0,0-.847-0.989,2.819,2.819,0,0,0-.846-0.358,4.819,4.819,0,0,0-1.123-.109h-0.756v5.99H145.2a5.411,5.411,0,0,0,1.156-.109,2.409,2.409,0,0,0,.906-0.407,2.244,2.244,0,0,0,.776-0.972,3.844,3.844,0,0,0,.26-1.515,3.734,3.734,0,0,0-.284-1.531h0Zm-21.161,9.453v1.468h2.884v1.467h-2.884v3.354h-1.879v-7.762H130v1.467Zm8.513,2.994,2.519,3.307H135.6l-2.089-2.855h-0.665v2.853h-1.877v-7.772h3.016a6.38,6.38,0,0,1,1.087.082,2.263,2.263,0,0,1,.855.337,2,2,0,0,1,.639.675,2.059,2.059,0,0,1,.237,1.048,2.465,2.465,0,0,1-.39,1.448,2.745,2.745,0,0,1-1.029.885Zm-0.618-2.595a0.721,0.721,0,0,0-.358-0.329,1.21,1.21,0,0,0-.392-0.1,5.341,5.341,0,0,0-.535-0.021H132.85v2.1h0.535a3.779,3.779,0,0,0,.664-0.05,0.965,0.965,0,0,0,.463-0.21,0.9,0.9,0,0,0,.268-0.352,1.4,1.4,0,0,0,.087-0.536,1.119,1.119,0,0,0-.108-0.506Zm8.071,5.9-0.464-1.576h-2.368l-0.464,1.576h-1.885l2.528-7.772h2.06l2.527,7.772h-1.934Zm-1.648-5.575-0.768,2.574h1.538l-0.768-2.581Zm10.093,5.575v-5.156l-1.359,3.32h-1.279l-1.36-3.32v5.154H145.5v-7.772h2.172l1.648,3.831,1.647-3.831h2.174v7.772Zm8.5-1.467v1.467H154.7v-7.774h5.075v1.467h-3.2v1.369h2.944v1.467h-2.944v1.989Zm9.033,1.467h-2.06l-1.209-4.808-1.172,4.808H162.3l-1.9-7.772h1.949l1.029,5.223,1.261-5.223h1.866l1.195,5.228,1.09-5.228h1.9l-1.9,7.772h0.01Zm8.651-.914a3.783,3.783,0,0,1-5.31-.012,5.029,5.029,0,0,1,0-5.922,3.783,3.783,0,0,1,5.31,0,5.062,5.062,0,0,1,.007,5.947Zm-1.11-4.156a2.474,2.474,0,0,0-.368-0.8,1.44,1.44,0,0,0-.544-0.457,1.5,1.5,0,0,0-.629-0.138,1.365,1.365,0,0,0-1.157.58,2.424,2.424,0,0,0-.373.8,5.19,5.19,0,0,0,0,2.384,2.456,2.456,0,0,0,.371.79,1.413,1.413,0,0,0,.546.463,1.509,1.509,0,0,0,.63.138,1.456,1.456,0,0,0,.641-0.149,1.4,1.4,0,0,0,.535-0.463,2.588,2.588,0,0,0,.371-0.79,5.279,5.279,0,0,0,0-2.366Zm7.6,1.763,2.521,3.307h-2.286l-2.089-2.855h-0.665v2.853h-1.879v-7.772h3.018a6.4,6.4,0,0,1,1.088.082,2.276,2.276,0,0,1,.855.337,1.989,1.989,0,0,1,.64.675,2.059,2.059,0,0,1,.237,1.048,2.471,2.471,0,0,1-.389,1.448,2.763,2.763,0,0,1-1.041.885Zm-0.618-2.595a0.717,0.717,0,0,0-.358-0.329,1.216,1.216,0,0,0-.392-0.1c-0.137-.014-0.315-0.021-0.535-0.021h-0.618v2.1h0.535a3.786,3.786,0,0,0,.664-0.05,0.969,0.969,0,0,0,.463-0.21,0.922,0.922,0,0,0,.268-0.352,1.378,1.378,0,0,0,.086-0.536,1.106,1.106,0,0,0-.107-0.506Zm10.25,5.9h-2.266l-2.043-3.161-0.367.535v2.626h-1.866v-7.774h1.879V987.7l2.391-3.45h2.175L190.8,987.86l2.783,4.165h-0.008Z" transform="translate(-83.125 -973.656)"/>
</svg>
